M48
; DRILL file {KiCad 7.0.10} date Fri Mar  8 01:09:19 2024
; FORMAT={-:-/ absolute / inch / decimal}
; #@! TF.CreationDate,2024-03-08T01:09:19+05:30
; #@! TF.GenerationSoftware,Kicad,Pcbnew,7.0.10
; #@! TF.FileFunction,Plated,1,2,PTH
FMAT,2
INCH
; #@! TA.AperFunction,Plated,PTH,ViaDrill
T1C0.0157
; #@! TA.AperFunction,Plated,PTH,ComponentDrill
T2C0.0354
; #@! TA.AperFunction,Plated,PTH,ComponentDrill
T3C0.0394
%
G90
G05
T1
X4.5768Y-3.4449
X4.5866Y-3.3661
X4.5965Y-3.6516
X4.6161Y-4.7146
X4.6358Y-3.9272
X4.6555Y-3.5728
X4.7638Y-3.4843
X4.7835Y-3.6516
X4.8228Y-3.6122
X4.8233Y-3.7111
X4.872Y-3.9173
X4.8819Y-3.7402
X4.9902Y-3.5138
X5.0394Y-3.4055
X5.0787Y-3.3366
X5.128Y-3.9173
X5.1575Y-3.1988
X5.187Y-4.1142
X5.2165Y-4.4685
X5.2264Y-4.6949
X5.2657Y-3.3563
T2
X4.6213Y-3.2776
X4.7213Y-3.2776
X4.8213Y-3.2776
X4.9213Y-3.2776
X4.9283Y-4.7933
X5.0213Y-3.2776
X5.0283Y-4.7933
X5.1213Y-3.2776
X5.1283Y-4.7933
X5.2213Y-3.2776
X5.2283Y-4.7933
T3
X4.7835Y-3.1791
X4.8819Y-3.1791
X4.9508Y-4.2323
X4.9508Y-4.3323
X4.9508Y-4.4866
X4.9508Y-4.5866
X4.9606Y-3.1791
X5.0591Y-3.1791
T3
G00X4.6909Y-3.1299
M15
G01X4.6909Y-3.0709
M16
G05
G00X5.1516Y-3.1299
M15
G01X5.1516Y-3.0709
M16
G05
M30
