%TF.GenerationSoftware,KiCad,Pcbnew,7.0.10*%
%TF.CreationDate,2024-03-08T01:09:17+05:30*%
%TF.ProjectId,ADAPTER PCB,41444150-5445-4522-9050-43422e6b6963,rev?*%
%TF.SameCoordinates,Original*%
%TF.FileFunction,Copper,L1,Top*%
%TF.FilePolarity,Positive*%
%FSLAX46Y46*%
G04 Gerber Fmt 4.6, Leading zero omitted, Abs format (unit mm)*
G04 Created by KiCad (PCBNEW 7.0.10) date 2024-03-08 01:09:17*
%MOMM*%
%LPD*%
G01*
G04 APERTURE LIST*
G04 Aperture macros list*
%AMRoundRect*
0 Rectangle with rounded corners*
0 $1 Rounding radius*
0 $2 $3 $4 $5 $6 $7 $8 $9 X,Y pos of 4 corners*
0 Add a 4 corners polygon primitive as box body*
4,1,4,$2,$3,$4,$5,$6,$7,$8,$9,$2,$3,0*
0 Add four circle primitives for the rounded corners*
1,1,$1+$1,$2,$3*
1,1,$1+$1,$4,$5*
1,1,$1+$1,$6,$7*
1,1,$1+$1,$8,$9*
0 Add four rect primitives between the rounded corners*
20,1,$1+$1,$2,$3,$4,$5,0*
20,1,$1+$1,$4,$5,$6,$7,0*
20,1,$1+$1,$6,$7,$8,$9,0*
20,1,$1+$1,$8,$9,$2,$3,0*%
G04 Aperture macros list end*
%TA.AperFunction,SMDPad,CuDef*%
%ADD10C,1.000000*%
%TD*%
%TA.AperFunction,ComponentPad*%
%ADD11O,1.500000X2.000000*%
%TD*%
%TA.AperFunction,ComponentPad*%
%ADD12R,1.500000X2.000000*%
%TD*%
%TA.AperFunction,ComponentPad*%
%ADD13C,1.600000*%
%TD*%
%TA.AperFunction,ComponentPad*%
%ADD14O,2.000000X3.300000*%
%TD*%
%TA.AperFunction,SMDPad,CuDef*%
%ADD15R,0.300000X1.400000*%
%TD*%
%TA.AperFunction,SMDPad,CuDef*%
%ADD16RoundRect,0.200000X-0.275000X0.200000X-0.275000X-0.200000X0.275000X-0.200000X0.275000X0.200000X0*%
%TD*%
%TA.AperFunction,ComponentPad*%
%ADD17R,1.700000X1.700000*%
%TD*%
%TA.AperFunction,ComponentPad*%
%ADD18O,1.700000X1.700000*%
%TD*%
%TA.AperFunction,SMDPad,CuDef*%
%ADD19RoundRect,0.243750X-0.456250X0.243750X-0.456250X-0.243750X0.456250X-0.243750X0.456250X0.243750X0*%
%TD*%
%TA.AperFunction,SMDPad,CuDef*%
%ADD20RoundRect,0.218750X0.256250X-0.218750X0.256250X0.218750X-0.256250X0.218750X-0.256250X-0.218750X0*%
%TD*%
%TA.AperFunction,SMDPad,CuDef*%
%ADD21RoundRect,0.250000X0.412500X0.925000X-0.412500X0.925000X-0.412500X-0.925000X0.412500X-0.925000X0*%
%TD*%
%TA.AperFunction,SMDPad,CuDef*%
%ADD22RoundRect,0.225000X-0.250000X0.225000X-0.250000X-0.225000X0.250000X-0.225000X0.250000X0.225000X0*%
%TD*%
%TA.AperFunction,SMDPad,CuDef*%
%ADD23RoundRect,0.250000X0.250000X0.475000X-0.250000X0.475000X-0.250000X-0.475000X0.250000X-0.475000X0*%
%TD*%
%TA.AperFunction,SMDPad,CuDef*%
%ADD24RoundRect,0.225000X0.225000X0.250000X-0.225000X0.250000X-0.225000X-0.250000X0.225000X-0.250000X0*%
%TD*%
%TA.AperFunction,ViaPad*%
%ADD25C,0.800000*%
%TD*%
%TA.AperFunction,Conductor*%
%ADD26C,0.250000*%
%TD*%
%TA.AperFunction,Conductor*%
%ADD27C,0.200000*%
%TD*%
%TA.AperFunction,Conductor*%
%ADD28C,0.500000*%
%TD*%
G04 APERTURE END LIST*
D10*
%TO.P,TP4,1,1*%
%TO.N,Net-(U2-~{RTS})*%
X125750000Y-94250000D03*
%TD*%
%TO.P,TP3,1,1*%
%TO.N,Net-(U2-TNOW{slash}~{DTR})*%
X125750000Y-96500000D03*
%TD*%
%TO.P,TP2,1,1*%
%TO.N,Net-(U2-~{CTS})*%
X125750000Y-92000000D03*
%TD*%
D11*
%TO.P,U1,1,M0*%
%TO.N,Net-(JP1-B)*%
X132620000Y-83250000D03*
%TO.P,U1,2,M1*%
%TO.N,Net-(JP2-B)*%
X130080000Y-83250000D03*
%TO.P,U1,3,RXD*%
%TO.N,/RXD*%
X127540000Y-83250000D03*
%TO.P,U1,4,TXD*%
%TO.N,/TXD*%
X125000000Y-83250000D03*
%TO.P,U1,5,AUX*%
%TO.N,Net-(U1-AUX)*%
X122460000Y-83250000D03*
%TO.P,U1,6,VCC*%
%TO.N,VCC*%
X119920000Y-83250000D03*
%TO.P,U1,7,GND*%
%TO.N,GND*%
X117380000Y-83250000D03*
%TO.P,U1,8,NC*%
%TO.N,unconnected-(U1-NC-Pad8)*%
X125180000Y-121750000D03*
%TO.P,U1,9,NC*%
%TO.N,unconnected-(U1-NC-Pad9)*%
X127720000Y-121750000D03*
%TO.P,U1,10,NC*%
%TO.N,unconnected-(U1-NC-Pad10)*%
X130260000Y-121750000D03*
D12*
%TO.P,U1,11,NC*%
%TO.N,unconnected-(U1-NC-Pad11)*%
X132800000Y-121750000D03*
%TD*%
D13*
%TO.P,J1,1,VBUS*%
%TO.N,Net-(J1-VBUS)*%
X121500000Y-80750000D03*
%TO.P,J1,2,D-*%
%TO.N,/USB_D-*%
X124000000Y-80750000D03*
%TO.P,J1,3,D+*%
%TO.N,/USB_D+*%
X126000000Y-80750000D03*
%TO.P,J1,4,GND*%
%TO.N,GND*%
X128500000Y-80750000D03*
D14*
%TO.P,J1,5,Shield*%
X130850000Y-78750000D03*
X119150000Y-78750000D03*
%TD*%
D15*
%TO.P,U2,1,UD+*%
%TO.N,/USB_D+*%
X130750000Y-90300000D03*
%TO.P,U2,2,UD-*%
%TO.N,/USB_D-*%
X130250000Y-90300000D03*
%TO.P,U2,3,GND*%
%TO.N,GND*%
X129750000Y-90300000D03*
%TO.P,U2,4,~{RTS}*%
%TO.N,Net-(U2-~{RTS})*%
X129250000Y-90300000D03*
%TO.P,U2,5,~{CTS}*%
%TO.N,Net-(U2-~{CTS})*%
X128750000Y-90300000D03*
%TO.P,U2,6,TNOW/~{DTR}*%
%TO.N,Net-(U2-TNOW{slash}~{DTR})*%
X128750000Y-94700000D03*
%TO.P,U2,7,VCC*%
%TO.N,VCC*%
X129250000Y-94700000D03*
%TO.P,U2,8,TXD*%
%TO.N,/RXD*%
X129750000Y-94700000D03*
%TO.P,U2,9,RXD*%
%TO.N,/TXD*%
X130250000Y-94700000D03*
%TO.P,U2,10,V3*%
%TO.N,Net-(U2-V3)*%
X130750000Y-94700000D03*
%TD*%
D10*
%TO.P,TP1,1,1*%
%TO.N,Net-(U1-AUX)*%
X120000000Y-95750000D03*
%TD*%
D16*
%TO.P,R3,1*%
%TO.N,Net-(U1-AUX)*%
X116500000Y-94925000D03*
%TO.P,R3,2*%
%TO.N,Net-(D1-A)*%
X116500000Y-96575000D03*
%TD*%
D17*
%TO.P,JP2,1,A*%
%TO.N,GND*%
X125750000Y-110040000D03*
D18*
%TO.P,JP2,2,B*%
%TO.N,Net-(JP2-B)*%
X125750000Y-107500000D03*
%TD*%
D17*
%TO.P,JP1,1,A*%
%TO.N,GND*%
X125750000Y-116500000D03*
D18*
%TO.P,JP1,2,B*%
%TO.N,Net-(JP1-B)*%
X125750000Y-113960000D03*
%TD*%
D19*
%TO.P,F1,1*%
%TO.N,Net-(J1-VBUS)*%
X122500000Y-88062500D03*
%TO.P,F1,2*%
%TO.N,VCC*%
X122500000Y-89937500D03*
%TD*%
D20*
%TO.P,D1,1,K*%
%TO.N,GND*%
X116500000Y-99787500D03*
%TO.P,D1,2,A*%
%TO.N,Net-(D1-A)*%
X116500000Y-98212500D03*
%TD*%
D21*
%TO.P,C5,1*%
%TO.N,VCC*%
X120037500Y-90500000D03*
%TO.P,C5,2*%
%TO.N,GND*%
X116962500Y-90500000D03*
%TD*%
D22*
%TO.P,C4,1*%
%TO.N,Net-(U2-V3)*%
X131000000Y-96975000D03*
%TO.P,C4,2*%
%TO.N,GND*%
X131000000Y-98525000D03*
%TD*%
%TO.P,C3,1*%
%TO.N,VCC*%
X129250000Y-96975000D03*
%TO.P,C3,2*%
%TO.N,GND*%
X129250000Y-98525000D03*
%TD*%
D23*
%TO.P,C2,1*%
%TO.N,VCC*%
X119450000Y-87500000D03*
%TO.P,C2,2*%
%TO.N,GND*%
X117550000Y-87500000D03*
%TD*%
D24*
%TO.P,C1,1*%
%TO.N,VCC*%
X119275000Y-85500000D03*
%TO.P,C1,2*%
%TO.N,GND*%
X117725000Y-85500000D03*
%TD*%
D25*
%TO.N,GND*%
X124000000Y-95000000D03*
X123750000Y-99500000D03*
X131000000Y-81250000D03*
X133750000Y-85250000D03*
X128000000Y-86500000D03*
X132750000Y-119250000D03*
X117250000Y-119750000D03*
X132500000Y-113500000D03*
X131750000Y-104500000D03*
X130250000Y-99500000D03*
X121000000Y-88500000D03*
X122500000Y-91750000D03*
X126750000Y-89250000D03*
X116750000Y-92750000D03*
X118250000Y-90750000D03*
X116250000Y-87500000D03*
X116500000Y-85500000D03*
%TO.N,VCC*%
X121500000Y-92750000D03*
X122512653Y-94262653D03*
%TO.N,GND*%
X117750000Y-99750000D03*
%TO.N,/TXD*%
X129000000Y-84750000D03*
%TD*%
D26*
%TO.N,Net-(JP1-B)*%
X133750000Y-87500000D02*
X132620000Y-86370000D01*
X133750000Y-105960000D02*
X133750000Y-87500000D01*
X132620000Y-86370000D02*
X132620000Y-83250000D01*
X125750000Y-113960000D02*
X133750000Y-105960000D01*
%TO.N,/TXD*%
X130250000Y-93500000D02*
X130250000Y-94700000D01*
X132500000Y-88250000D02*
X132500000Y-91250000D01*
X129000000Y-84750000D02*
X132500000Y-88250000D01*
X132500000Y-91250000D02*
X130250000Y-93500000D01*
%TO.N,Net-(JP2-B)*%
X133200000Y-87700000D02*
X133200000Y-100050000D01*
X130080000Y-84580000D02*
X133200000Y-87700000D01*
X130080000Y-83250000D02*
X130080000Y-84580000D01*
X133200000Y-100050000D02*
X125750000Y-107500000D01*
%TO.N,/RXD*%
X131750000Y-88750000D02*
X127540000Y-84540000D01*
X129750000Y-94700000D02*
X129750000Y-93000000D01*
X129750000Y-93000000D02*
X131750000Y-91000000D01*
X131750000Y-91000000D02*
X131750000Y-88750000D01*
X127540000Y-84540000D02*
X127540000Y-83250000D01*
D27*
%TO.N,/USB_D+*%
X130750000Y-89184314D02*
X130750000Y-90300000D01*
X129665685Y-88100000D02*
X130750000Y-89184314D01*
X128165686Y-88100000D02*
X129665685Y-88100000D01*
X126250000Y-86184314D02*
X128165686Y-88100000D01*
X126250000Y-81000000D02*
X126250000Y-86184314D01*
X126000000Y-80750000D02*
X126250000Y-81000000D01*
%TO.N,/USB_D-*%
X128000000Y-88500000D02*
X123750000Y-84250000D01*
X130250000Y-89250000D02*
X129500000Y-88500000D01*
X123750000Y-84250000D02*
X123750000Y-81000000D01*
X130250000Y-90300000D02*
X130250000Y-89250000D01*
X129500000Y-88500000D02*
X128000000Y-88500000D01*
X123750000Y-81000000D02*
X124000000Y-80750000D01*
D28*
%TO.N,VCC*%
X120750000Y-92750000D02*
X120037500Y-92037500D01*
X120037500Y-92037500D02*
X120037500Y-90500000D01*
X121500000Y-92750000D02*
X120750000Y-92750000D01*
X122512653Y-95762653D02*
X122512653Y-94262653D01*
X124750000Y-98000000D02*
X122750000Y-96000000D01*
X122750000Y-96000000D02*
X122512653Y-95762653D01*
X127500000Y-98000000D02*
X124750000Y-98000000D01*
X128525000Y-96975000D02*
X127500000Y-98000000D01*
X129250000Y-96975000D02*
X128525000Y-96975000D01*
D26*
%TO.N,GND*%
X117712500Y-99787500D02*
X117750000Y-99750000D01*
X116500000Y-99787500D02*
X117712500Y-99787500D01*
%TO.N,Net-(U1-AUX)*%
X124250000Y-87750000D02*
X122460000Y-85960000D01*
X124250000Y-91500000D02*
X124250000Y-87750000D01*
X120000000Y-95750000D02*
X124250000Y-91500000D01*
X122460000Y-85960000D02*
X122460000Y-83250000D01*
%TO.N,Net-(D1-A)*%
X116500000Y-96575000D02*
X116500000Y-98212500D01*
%TO.N,Net-(U1-AUX)*%
X119175000Y-94925000D02*
X120000000Y-95750000D01*
X116500000Y-94925000D02*
X119175000Y-94925000D01*
D28*
%TO.N,VCC*%
X119275000Y-83895000D02*
X119920000Y-83250000D01*
X119275000Y-85500000D02*
X119275000Y-83895000D01*
X119275000Y-87325000D02*
X119450000Y-87500000D01*
X119275000Y-85500000D02*
X119275000Y-87325000D01*
X119450000Y-89912500D02*
X120037500Y-90500000D01*
X119450000Y-87500000D02*
X119450000Y-89912500D01*
X120600000Y-89937500D02*
X120037500Y-90500000D01*
X122500000Y-89937500D02*
X120600000Y-89937500D01*
%TO.N,Net-(J1-VBUS)*%
X121260000Y-86822500D02*
X122500000Y-88062500D01*
X121260000Y-80990000D02*
X121260000Y-86822500D01*
X121500000Y-80750000D02*
X121260000Y-80990000D01*
D26*
%TO.N,Net-(U2-~{CTS})*%
X128750000Y-91500000D02*
X128250000Y-92000000D01*
X128250000Y-92000000D02*
X125750000Y-92000000D01*
X128750000Y-90300000D02*
X128750000Y-91500000D01*
%TO.N,Net-(U2-~{RTS})*%
X126750000Y-94250000D02*
X125750000Y-94250000D01*
X129250000Y-91750000D02*
X126750000Y-94250000D01*
X129250000Y-90300000D02*
X129250000Y-91750000D01*
%TO.N,Net-(U2-TNOW{slash}~{DTR})*%
X127550000Y-94700000D02*
X125750000Y-96500000D01*
X128750000Y-94700000D02*
X127550000Y-94700000D01*
%TO.N,VCC*%
X129250000Y-94700000D02*
X129250000Y-96975000D01*
%TO.N,Net-(U2-V3)*%
X130750000Y-96725000D02*
X131000000Y-96975000D01*
X130750000Y-94700000D02*
X130750000Y-96725000D01*
%TD*%
%TA.AperFunction,Conductor*%
%TO.N,GND*%
G36*
X123429397Y-83997923D02*
G01*
X123449480Y-84055719D01*
X123449500Y-84057725D01*
X123449500Y-84184835D01*
X123447280Y-84198513D01*
X123448494Y-84198683D01*
X123447226Y-84207766D01*
X123449394Y-84254641D01*
X123449500Y-84259213D01*
X123449500Y-84277844D01*
X123449522Y-84277966D01*
X123451101Y-84291577D01*
X123452414Y-84319987D01*
X123452415Y-84319994D01*
X123456384Y-84328982D01*
X123463132Y-84350772D01*
X123464939Y-84360433D01*
X123465629Y-84361547D01*
X123479912Y-84384617D01*
X123486301Y-84396738D01*
X123488111Y-84400836D01*
X123497794Y-84422765D01*
X123504745Y-84429716D01*
X123518907Y-84447596D01*
X123524081Y-84455952D01*
X123546781Y-84473094D01*
X123557117Y-84482088D01*
X127741437Y-88666409D01*
X127749537Y-88677648D01*
X127750516Y-88676909D01*
X127756044Y-88684230D01*
X127790714Y-88715836D01*
X127794019Y-88718992D01*
X127807200Y-88732172D01*
X127807203Y-88732175D01*
X127807300Y-88732241D01*
X127818049Y-88740756D01*
X127828737Y-88750499D01*
X127839067Y-88759916D01*
X127848228Y-88763464D01*
X127868416Y-88774105D01*
X127876520Y-88779657D01*
X127904215Y-88786171D01*
X127917296Y-88790222D01*
X127943827Y-88800500D01*
X127953652Y-88800500D01*
X127976316Y-88803129D01*
X127985881Y-88805379D01*
X128010958Y-88801880D01*
X128014054Y-88801449D01*
X128027731Y-88800500D01*
X129334521Y-88800500D01*
X129392712Y-88819407D01*
X129404525Y-88829496D01*
X129920504Y-89345475D01*
X129948281Y-89399992D01*
X129949500Y-89415479D01*
X129949500Y-89434317D01*
X129932815Y-89489318D01*
X129911136Y-89521762D01*
X129911132Y-89521772D01*
X129899501Y-89580241D01*
X129899500Y-89580253D01*
X129899500Y-91019746D01*
X129899501Y-91019758D01*
X129911132Y-91078227D01*
X129911134Y-91078233D01*
X129924499Y-91098235D01*
X129955448Y-91144552D01*
X130021769Y-91188867D01*
X130066231Y-91197711D01*
X130080241Y-91200498D01*
X130080246Y-91200498D01*
X130080252Y-91200500D01*
X130080253Y-91200500D01*
X130419747Y-91200500D01*
X130419748Y-91200500D01*
X130424418Y-91199570D01*
X130480685Y-91188379D01*
X130519315Y-91188379D01*
X130580241Y-91200498D01*
X130580246Y-91200498D01*
X130580252Y-91200500D01*
X130580253Y-91200500D01*
X130850166Y-91200500D01*
X130908357Y-91219407D01*
X130944321Y-91268907D01*
X130944321Y-91330093D01*
X130920170Y-91369504D01*
X129532940Y-92756732D01*
X129526574Y-92762564D01*
X129496807Y-92787542D01*
X129496805Y-92787544D01*
X129477371Y-92821205D01*
X129472740Y-92828475D01*
X129450446Y-92860316D01*
X129450446Y-92860317D01*
X129450442Y-92860324D01*
X129450051Y-92861786D01*
X129440170Y-92885640D01*
X129439414Y-92886948D01*
X129439410Y-92886960D01*
X129432662Y-92925223D01*
X129430794Y-92933649D01*
X129420736Y-92971187D01*
X129420736Y-92971194D01*
X129424123Y-93009904D01*
X129424500Y-93018533D01*
X129424500Y-93700500D01*
X129405593Y-93758691D01*
X129356093Y-93794655D01*
X129325500Y-93799500D01*
X129080248Y-93799500D01*
X129019314Y-93811621D01*
X128980686Y-93811621D01*
X128919751Y-93799500D01*
X128919748Y-93799500D01*
X128580252Y-93799500D01*
X128580251Y-93799500D01*
X128580241Y-93799501D01*
X128521772Y-93811132D01*
X128521766Y-93811134D01*
X128455451Y-93855445D01*
X128455445Y-93855451D01*
X128411134Y-93921766D01*
X128411132Y-93921772D01*
X128399501Y-93980241D01*
X128399500Y-93980253D01*
X128399500Y-94275500D01*
X128380593Y-94333691D01*
X128331093Y-94369655D01*
X128300500Y-94374500D01*
X127568522Y-94374500D01*
X127559893Y-94374123D01*
X127521194Y-94370737D01*
X127521185Y-94370737D01*
X127483659Y-94380792D01*
X127475235Y-94382660D01*
X127436958Y-94389410D01*
X127436951Y-94389413D01*
X127435632Y-94390175D01*
X127411790Y-94400050D01*
X127410326Y-94400442D01*
X127410312Y-94400448D01*
X127378488Y-94422731D01*
X127371209Y-94427368D01*
X127337546Y-94446804D01*
X127312574Y-94476564D01*
X127306741Y-94482930D01*
X125998982Y-95790690D01*
X125944465Y-95818467D01*
X125905287Y-95816810D01*
X125835056Y-95799500D01*
X125664944Y-95799500D01*
X125664941Y-95799500D01*
X125499776Y-95840209D01*
X125349146Y-95919267D01*
X125221818Y-96032069D01*
X125221816Y-96032072D01*
X125152594Y-96132357D01*
X125125182Y-96172070D01*
X125065010Y-96330734D01*
X125064860Y-96331129D01*
X125044355Y-96499998D01*
X125044355Y-96500001D01*
X125048127Y-96531066D01*
X125064860Y-96668872D01*
X125125182Y-96827930D01*
X125221817Y-96967929D01*
X125349148Y-97080734D01*
X125499775Y-97159790D01*
X125664944Y-97200500D01*
X125664947Y-97200500D01*
X125835053Y-97200500D01*
X125835056Y-97200500D01*
X126000225Y-97159790D01*
X126150852Y-97080734D01*
X126278183Y-96967929D01*
X126374818Y-96827930D01*
X126435140Y-96668872D01*
X126455645Y-96500000D01*
X126449634Y-96450499D01*
X126434893Y-96329095D01*
X126446648Y-96269050D01*
X126463167Y-96247158D01*
X126742945Y-95967381D01*
X127655831Y-95054496D01*
X127710348Y-95026719D01*
X127725835Y-95025500D01*
X128300500Y-95025500D01*
X128358691Y-95044407D01*
X128394655Y-95093907D01*
X128399500Y-95124500D01*
X128399500Y-95419746D01*
X128399501Y-95419758D01*
X128411132Y-95478227D01*
X128411134Y-95478233D01*
X128452786Y-95540568D01*
X128455448Y-95544552D01*
X128521769Y-95588867D01*
X128566231Y-95597711D01*
X128580241Y-95600498D01*
X128580246Y-95600498D01*
X128580252Y-95600500D01*
X128580253Y-95600500D01*
X128825500Y-95600500D01*
X128883691Y-95619407D01*
X128919655Y-95668907D01*
X128924500Y-95699500D01*
X128924500Y-96250251D01*
X128905593Y-96308442D01*
X128870446Y-96338460D01*
X128746781Y-96401471D01*
X128746780Y-96401471D01*
X128746780Y-96401472D01*
X128652746Y-96495505D01*
X128598232Y-96523281D01*
X128582745Y-96524500D01*
X128555864Y-96524500D01*
X128544781Y-96523878D01*
X128536914Y-96522991D01*
X128507965Y-96519730D01*
X128507964Y-96519730D01*
X128507963Y-96519730D01*
X128451312Y-96530447D01*
X128447667Y-96531066D01*
X128390715Y-96539651D01*
X128383629Y-96541837D01*
X128383500Y-96541419D01*
X128381385Y-96542115D01*
X128381529Y-96542526D01*
X128374530Y-96544975D01*
X128323562Y-96571912D01*
X128320260Y-96573579D01*
X128268356Y-96598575D01*
X128262229Y-96602753D01*
X128261984Y-96602393D01*
X128260168Y-96603681D01*
X128260427Y-96604032D01*
X128254458Y-96608437D01*
X128213720Y-96649175D01*
X128211056Y-96651742D01*
X128168802Y-96690948D01*
X128164179Y-96696746D01*
X128163836Y-96696472D01*
X128155295Y-96707599D01*
X127342394Y-97520503D01*
X127287877Y-97548281D01*
X127272390Y-97549500D01*
X124977611Y-97549500D01*
X124919420Y-97530593D01*
X124907607Y-97520504D01*
X122992149Y-95605046D01*
X122964372Y-95550529D01*
X122963153Y-95535042D01*
X122963153Y-94695585D01*
X122982060Y-94637394D01*
X122983589Y-94635346D01*
X123037189Y-94565494D01*
X123097697Y-94419415D01*
X123118335Y-94262653D01*
X123116669Y-94250000D01*
X125044355Y-94250000D01*
X125064860Y-94418872D01*
X125125182Y-94577930D01*
X125221817Y-94717929D01*
X125349148Y-94830734D01*
X125499775Y-94909790D01*
X125664944Y-94950500D01*
X125664947Y-94950500D01*
X125835053Y-94950500D01*
X125835056Y-94950500D01*
X126000225Y-94909790D01*
X126150852Y-94830734D01*
X126278183Y-94717929D01*
X126346979Y-94618260D01*
X126395595Y-94581112D01*
X126428454Y-94575500D01*
X126731466Y-94575500D01*
X126740094Y-94575876D01*
X126778807Y-94579264D01*
X126816354Y-94569202D01*
X126824784Y-94567334D01*
X126863045Y-94560588D01*
X126864345Y-94559838D01*
X126888236Y-94549942D01*
X126888464Y-94549880D01*
X126889684Y-94549554D01*
X126921533Y-94527251D01*
X126928779Y-94522635D01*
X126962455Y-94503194D01*
X126987443Y-94473413D01*
X126993254Y-94467070D01*
X129467066Y-91993258D01*
X129473425Y-91987433D01*
X129503194Y-91962455D01*
X129522635Y-91928779D01*
X129527251Y-91921533D01*
X129549554Y-91889684D01*
X129549942Y-91888236D01*
X129559838Y-91864345D01*
X129560588Y-91863045D01*
X129566215Y-91831129D01*
X129567334Y-91824782D01*
X129569204Y-91816348D01*
X129579264Y-91778806D01*
X129575877Y-91740094D01*
X129575500Y-91731465D01*
X129575500Y-91128268D01*
X129587632Y-91088277D01*
X129585134Y-91087243D01*
X129588863Y-91078235D01*
X129588867Y-91078231D01*
X129600500Y-91019748D01*
X129600500Y-89580252D01*
X129588867Y-89521769D01*
X129544552Y-89455448D01*
X129544548Y-89455445D01*
X129478233Y-89411134D01*
X129478231Y-89411133D01*
X129478228Y-89411132D01*
X129478227Y-89411132D01*
X129419758Y-89399501D01*
X129419748Y-89399500D01*
X129080252Y-89399500D01*
X129080248Y-89399500D01*
X129019314Y-89411621D01*
X128980686Y-89411621D01*
X128919751Y-89399500D01*
X128919748Y-89399500D01*
X128580252Y-89399500D01*
X128580251Y-89399500D01*
X128580241Y-89399501D01*
X128521772Y-89411132D01*
X128521766Y-89411134D01*
X128455451Y-89455445D01*
X128455445Y-89455451D01*
X128411134Y-89521766D01*
X128411132Y-89521772D01*
X128399501Y-89580241D01*
X128399500Y-89580251D01*
X128399500Y-89580252D01*
X128399500Y-91019748D01*
X128411133Y-91078231D01*
X128411133Y-91078232D01*
X128411134Y-91078233D01*
X128414866Y-91087243D01*
X128412367Y-91088277D01*
X128424500Y-91128268D01*
X128424500Y-91324166D01*
X128405593Y-91382357D01*
X128395504Y-91394170D01*
X128144170Y-91645504D01*
X128089653Y-91673281D01*
X128074166Y-91674500D01*
X126428454Y-91674500D01*
X126370263Y-91655593D01*
X126346979Y-91631739D01*
X126334973Y-91614345D01*
X126278183Y-91532071D01*
X126252924Y-91509694D01*
X126150853Y-91419267D01*
X126150852Y-91419266D01*
X126000225Y-91340210D01*
X126000224Y-91340209D01*
X126000223Y-91340209D01*
X125835058Y-91299500D01*
X125835056Y-91299500D01*
X125664944Y-91299500D01*
X125664941Y-91299500D01*
X125499776Y-91340209D01*
X125349146Y-91419267D01*
X125221818Y-91532069D01*
X125221817Y-91532071D01*
X125125182Y-91672070D01*
X125064860Y-91831128D01*
X125044355Y-92000000D01*
X125064860Y-92168872D01*
X125125182Y-92327930D01*
X125221817Y-92467929D01*
X125349148Y-92580734D01*
X125499775Y-92659790D01*
X125664944Y-92700500D01*
X125664947Y-92700500D01*
X125835053Y-92700500D01*
X125835056Y-92700500D01*
X126000225Y-92659790D01*
X126150852Y-92580734D01*
X126278183Y-92467929D01*
X126346979Y-92368260D01*
X126395595Y-92331112D01*
X126428454Y-92325500D01*
X127975166Y-92325500D01*
X128033357Y-92344407D01*
X128069321Y-92393907D01*
X128069321Y-92455093D01*
X128045170Y-92494504D01*
X126644170Y-93895504D01*
X126589653Y-93923281D01*
X126574166Y-93924500D01*
X126428454Y-93924500D01*
X126370263Y-93905593D01*
X126346979Y-93881739D01*
X126278183Y-93782071D01*
X126251792Y-93758691D01*
X126150853Y-93669267D01*
X126150852Y-93669266D01*
X126000225Y-93590210D01*
X126000224Y-93590209D01*
X126000223Y-93590209D01*
X125835058Y-93549500D01*
X125835056Y-93549500D01*
X125664944Y-93549500D01*
X125664941Y-93549500D01*
X125499776Y-93590209D01*
X125349146Y-93669267D01*
X125221818Y-93782069D01*
X125221816Y-93782072D01*
X125185713Y-93834376D01*
X125125182Y-93922070D01*
X125064860Y-94081128D01*
X125044355Y-94250000D01*
X123116669Y-94250000D01*
X123097697Y-94105891D01*
X123037190Y-93959814D01*
X123037190Y-93959813D01*
X122940939Y-93834376D01*
X122940938Y-93834375D01*
X122940935Y-93834371D01*
X122940930Y-93834367D01*
X122940929Y-93834366D01*
X122872776Y-93782071D01*
X122815494Y-93738117D01*
X122798537Y-93731093D01*
X122709640Y-93694270D01*
X122663114Y-93654533D01*
X122648831Y-93595038D01*
X122672246Y-93538510D01*
X122677509Y-93532815D01*
X124467066Y-91743258D01*
X124473425Y-91737433D01*
X124480538Y-91731465D01*
X124503194Y-91712455D01*
X124522635Y-91678779D01*
X124527251Y-91671533D01*
X124549554Y-91639684D01*
X124549942Y-91638236D01*
X124559838Y-91614345D01*
X124560588Y-91613045D01*
X124567334Y-91574784D01*
X124569204Y-91566348D01*
X124579264Y-91528807D01*
X124575877Y-91490091D01*
X124575500Y-91481463D01*
X124575500Y-87768524D01*
X124575877Y-87759895D01*
X124579263Y-87721193D01*
X124569201Y-87683642D01*
X124567335Y-87675224D01*
X124560588Y-87636954D01*
X124559840Y-87635659D01*
X124549942Y-87611767D01*
X124549554Y-87610316D01*
X124527257Y-87578473D01*
X124522626Y-87571203D01*
X124507783Y-87545494D01*
X124503194Y-87537545D01*
X124480523Y-87518522D01*
X124473434Y-87512573D01*
X124467066Y-87506739D01*
X122814496Y-85854169D01*
X122786719Y-85799652D01*
X122785500Y-85784165D01*
X122785500Y-84461947D01*
X122804407Y-84403756D01*
X122850117Y-84369110D01*
X122880753Y-84357764D01*
X123044807Y-84255509D01*
X123184919Y-84122323D01*
X123269245Y-84001169D01*
X123318006Y-83964210D01*
X123379179Y-83962970D01*
X123429397Y-83997923D01*
G37*
%TD.AperFunction*%
%TA.AperFunction,Conductor*%
G36*
X120757665Y-84109531D02*
G01*
X120799820Y-84153878D01*
X120809500Y-84196574D01*
X120809500Y-86791636D01*
X120808878Y-86802719D01*
X120804730Y-86839533D01*
X120804730Y-86839538D01*
X120815444Y-86896164D01*
X120816064Y-86899812D01*
X120824652Y-86956787D01*
X120826840Y-86963881D01*
X120826417Y-86964011D01*
X120827109Y-86966113D01*
X120827526Y-86965968D01*
X120829975Y-86972968D01*
X120856906Y-87023924D01*
X120858574Y-87027228D01*
X120883574Y-87079141D01*
X120887753Y-87085270D01*
X120887389Y-87085517D01*
X120888677Y-87087331D01*
X120889030Y-87087071D01*
X120893434Y-87093038D01*
X120934199Y-87133804D01*
X120936768Y-87136471D01*
X120975944Y-87178694D01*
X120981743Y-87183318D01*
X120981467Y-87183663D01*
X120992600Y-87192204D01*
X121287842Y-87487446D01*
X121570504Y-87770107D01*
X121598281Y-87824624D01*
X121599500Y-87840111D01*
X121599500Y-88359773D01*
X121602313Y-88389768D01*
X121602315Y-88389777D01*
X121646543Y-88516175D01*
X121646544Y-88516176D01*
X121646545Y-88516179D01*
X121726070Y-88623930D01*
X121833821Y-88703455D01*
X121960226Y-88747686D01*
X121990226Y-88750499D01*
X121990230Y-88750500D01*
X121990236Y-88750500D01*
X123009770Y-88750500D01*
X123009772Y-88750499D01*
X123039774Y-88747686D01*
X123166179Y-88703455D01*
X123273930Y-88623930D01*
X123353455Y-88516179D01*
X123397686Y-88389774D01*
X123400499Y-88359772D01*
X123400500Y-88359770D01*
X123400500Y-87765230D01*
X123400499Y-87765226D01*
X123397686Y-87735231D01*
X123397686Y-87735226D01*
X123353455Y-87608821D01*
X123306715Y-87545491D01*
X123287374Y-87487446D01*
X123288488Y-87483925D01*
X123272807Y-87486409D01*
X123229506Y-87468283D01*
X123220352Y-87461527D01*
X123166179Y-87421545D01*
X123039774Y-87377314D01*
X123039771Y-87377313D01*
X123039768Y-87377313D01*
X123009773Y-87374500D01*
X123009764Y-87374500D01*
X122490112Y-87374500D01*
X122431921Y-87355593D01*
X122420108Y-87345504D01*
X121739496Y-86664892D01*
X121711719Y-86610375D01*
X121710500Y-86594888D01*
X121710500Y-84323653D01*
X121729407Y-84265462D01*
X121778907Y-84229498D01*
X121840093Y-84229498D01*
X121870098Y-84245366D01*
X121929798Y-84291577D01*
X121954627Y-84310796D01*
X122079100Y-84371853D01*
X122123016Y-84414454D01*
X122134500Y-84460735D01*
X122134500Y-85941465D01*
X122134123Y-85950094D01*
X122130736Y-85988805D01*
X122130736Y-85988806D01*
X122140795Y-86026350D01*
X122142664Y-86034779D01*
X122149411Y-86073045D01*
X122150164Y-86074348D01*
X122160054Y-86098224D01*
X122160443Y-86099679D01*
X122160446Y-86099685D01*
X122182732Y-86131512D01*
X122187372Y-86138795D01*
X122206806Y-86172455D01*
X122236569Y-86197429D01*
X122242938Y-86203264D01*
X123358298Y-87318624D01*
X123386075Y-87373141D01*
X123382997Y-87392572D01*
X123416258Y-87392324D01*
X123456375Y-87416701D01*
X123895504Y-87855830D01*
X123923281Y-87910347D01*
X123924500Y-87925834D01*
X123924500Y-91324165D01*
X123905593Y-91382356D01*
X123895504Y-91394169D01*
X122226352Y-93063321D01*
X122171835Y-93091098D01*
X122111403Y-93081527D01*
X122068138Y-93038262D01*
X122058567Y-92977830D01*
X122064882Y-92955435D01*
X122085044Y-92906762D01*
X122105682Y-92750000D01*
X122085044Y-92593238D01*
X122033139Y-92467929D01*
X122024537Y-92447161D01*
X122024537Y-92447160D01*
X121928286Y-92321723D01*
X121928285Y-92321722D01*
X121928282Y-92321718D01*
X121928277Y-92321714D01*
X121928276Y-92321713D01*
X121802838Y-92225462D01*
X121656766Y-92164957D01*
X121656758Y-92164955D01*
X121500001Y-92144318D01*
X121499999Y-92144318D01*
X121343241Y-92164955D01*
X121343233Y-92164957D01*
X121197161Y-92225462D01*
X121158994Y-92254748D01*
X121127334Y-92279042D01*
X121069659Y-92299466D01*
X121067068Y-92299500D01*
X120977611Y-92299500D01*
X120919420Y-92280593D01*
X120907607Y-92270504D01*
X120627626Y-91990523D01*
X120599849Y-91936006D01*
X120609420Y-91875574D01*
X120652685Y-91832309D01*
X120661317Y-91828620D01*
X120662879Y-91827793D01*
X120662882Y-91827793D01*
X120772150Y-91747150D01*
X120852793Y-91637882D01*
X120897646Y-91509699D01*
X120900499Y-91479273D01*
X120900500Y-91479273D01*
X120900500Y-90487000D01*
X120919407Y-90428809D01*
X120968907Y-90392845D01*
X120999500Y-90388000D01*
X121594222Y-90388000D01*
X121652413Y-90406907D01*
X121673874Y-90428208D01*
X121726070Y-90498930D01*
X121833821Y-90578455D01*
X121960226Y-90622686D01*
X121990226Y-90625499D01*
X121990230Y-90625500D01*
X121990236Y-90625500D01*
X123009770Y-90625500D01*
X123009772Y-90625499D01*
X123039774Y-90622686D01*
X123166179Y-90578455D01*
X123273930Y-90498930D01*
X123353455Y-90391179D01*
X123397686Y-90264774D01*
X123400499Y-90234772D01*
X123400500Y-90234770D01*
X123400500Y-89640230D01*
X123400499Y-89640226D01*
X123397686Y-89610231D01*
X123397686Y-89610226D01*
X123353455Y-89483821D01*
X123273930Y-89376070D01*
X123166179Y-89296545D01*
X123166176Y-89296544D01*
X123166175Y-89296543D01*
X123039777Y-89252315D01*
X123039776Y-89252314D01*
X123039774Y-89252314D01*
X123039771Y-89252313D01*
X123039768Y-89252313D01*
X123009773Y-89249500D01*
X123009764Y-89249500D01*
X121990236Y-89249500D01*
X121990226Y-89249500D01*
X121960231Y-89252313D01*
X121960222Y-89252315D01*
X121833824Y-89296543D01*
X121728237Y-89374471D01*
X121726070Y-89376070D01*
X121673875Y-89446790D01*
X121624109Y-89482381D01*
X121594222Y-89487000D01*
X120966735Y-89487000D01*
X120908544Y-89468093D01*
X120873291Y-89420698D01*
X120852793Y-89362118D01*
X120852791Y-89362116D01*
X120852791Y-89362114D01*
X120772154Y-89252855D01*
X120772152Y-89252853D01*
X120772150Y-89252850D01*
X120772146Y-89252847D01*
X120772144Y-89252845D01*
X120662883Y-89172207D01*
X120534703Y-89127355D01*
X120534694Y-89127353D01*
X120504274Y-89124500D01*
X120504266Y-89124500D01*
X119999500Y-89124500D01*
X119941309Y-89105593D01*
X119905345Y-89056093D01*
X119900500Y-89025500D01*
X119900500Y-88436909D01*
X119919407Y-88378718D01*
X119940712Y-88357254D01*
X119968582Y-88336684D01*
X120022150Y-88297150D01*
X120102793Y-88187882D01*
X120147646Y-88059699D01*
X120150499Y-88029273D01*
X120150500Y-88029273D01*
X120150500Y-86970727D01*
X120150499Y-86970725D01*
X120147646Y-86940301D01*
X120102793Y-86812118D01*
X120095856Y-86802719D01*
X120022154Y-86702855D01*
X120022152Y-86702853D01*
X120022150Y-86702850D01*
X120022146Y-86702847D01*
X120022144Y-86702845D01*
X119912883Y-86622207D01*
X119791802Y-86579839D01*
X119743122Y-86542774D01*
X119725500Y-86486395D01*
X119725500Y-86167255D01*
X119744407Y-86109064D01*
X119754490Y-86097257D01*
X119848528Y-86003220D01*
X119909719Y-85883126D01*
X119925500Y-85783488D01*
X119925500Y-85216512D01*
X119909719Y-85116874D01*
X119909716Y-85116869D01*
X119909716Y-85116867D01*
X119848529Y-84996782D01*
X119848528Y-84996780D01*
X119754494Y-84902746D01*
X119726719Y-84848232D01*
X119725500Y-84832745D01*
X119725500Y-84546006D01*
X119744407Y-84487815D01*
X119793907Y-84451851D01*
X119829513Y-84447133D01*
X119968390Y-84454176D01*
X120159474Y-84424903D01*
X120187687Y-84414454D01*
X120340749Y-84357766D01*
X120340751Y-84357764D01*
X120340753Y-84357764D01*
X120504807Y-84255509D01*
X120642292Y-84124819D01*
X120697495Y-84098432D01*
X120757665Y-84109531D01*
G37*
%TD.AperFunction*%
%TA.AperFunction,Conductor*%
G36*
X126729593Y-84000007D02*
G01*
X126736061Y-84010154D01*
X126755840Y-84045790D01*
X126881759Y-84192468D01*
X127009798Y-84291577D01*
X127034627Y-84310796D01*
X127159100Y-84371853D01*
X127203016Y-84414454D01*
X127214500Y-84460735D01*
X127214500Y-84521465D01*
X127214123Y-84530094D01*
X127210736Y-84568805D01*
X127210736Y-84568806D01*
X127220795Y-84606350D01*
X127222664Y-84614779D01*
X127229411Y-84653045D01*
X127230164Y-84654348D01*
X127240054Y-84678224D01*
X127240443Y-84679679D01*
X127240446Y-84679685D01*
X127262732Y-84711512D01*
X127267372Y-84718795D01*
X127286806Y-84752455D01*
X127316569Y-84777429D01*
X127322938Y-84783264D01*
X131395504Y-88855830D01*
X131423281Y-88910347D01*
X131424500Y-88925834D01*
X131424500Y-90824165D01*
X131405593Y-90882356D01*
X131395504Y-90894169D01*
X131269504Y-91020169D01*
X131214987Y-91047946D01*
X131154555Y-91038375D01*
X131111290Y-90995110D01*
X131100500Y-90950165D01*
X131100500Y-89580253D01*
X131100498Y-89580241D01*
X131097711Y-89566231D01*
X131088867Y-89521769D01*
X131088864Y-89521764D01*
X131088863Y-89521762D01*
X131067185Y-89489318D01*
X131050500Y-89434317D01*
X131050500Y-89249482D01*
X131052731Y-89235809D01*
X131051505Y-89235638D01*
X131052773Y-89226546D01*
X131050606Y-89179671D01*
X131050500Y-89175099D01*
X131050500Y-89156474D01*
X131050500Y-89156470D01*
X131050478Y-89156356D01*
X131048898Y-89142744D01*
X131047585Y-89114322D01*
X131043614Y-89105330D01*
X131036864Y-89083528D01*
X131035061Y-89073882D01*
X131035061Y-89073881D01*
X131020085Y-89049693D01*
X131013697Y-89037574D01*
X131008366Y-89025500D01*
X131002206Y-89011548D01*
X131002205Y-89011547D01*
X131002204Y-89011545D01*
X130995254Y-89004595D01*
X130981088Y-88986709D01*
X130975921Y-88978364D01*
X130975918Y-88978361D01*
X130953230Y-88961228D01*
X130942886Y-88952228D01*
X130211850Y-88221193D01*
X129924249Y-87933593D01*
X129916164Y-87922344D01*
X129915172Y-87923094D01*
X129909643Y-87915772D01*
X129874957Y-87884151D01*
X129871653Y-87880996D01*
X129858485Y-87867828D01*
X129858481Y-87867825D01*
X129858378Y-87867755D01*
X129847647Y-87859255D01*
X129826618Y-87840084D01*
X129826616Y-87840083D01*
X129826615Y-87840082D01*
X129817453Y-87836533D01*
X129797269Y-87825893D01*
X129789167Y-87820343D01*
X129761474Y-87813829D01*
X129748382Y-87809775D01*
X129721858Y-87799500D01*
X129712033Y-87799500D01*
X129689368Y-87796870D01*
X129679804Y-87794621D01*
X129679803Y-87794621D01*
X129651631Y-87798551D01*
X129637954Y-87799500D01*
X128331165Y-87799500D01*
X128272974Y-87780593D01*
X128261161Y-87770504D01*
X126579496Y-86088839D01*
X126551719Y-86034322D01*
X126550500Y-86018835D01*
X126550500Y-84058198D01*
X126569407Y-84000007D01*
X126618907Y-83964043D01*
X126680093Y-83964043D01*
X126729593Y-84000007D01*
G37*
%TD.AperFunction*%
%TA.AperFunction,Conductor*%
G36*
X130753875Y-76000805D02*
G01*
X130755738Y-76000951D01*
X130806771Y-76004967D01*
X130807087Y-76004994D01*
X130946135Y-76017159D01*
X130960580Y-76019512D01*
X131040370Y-76038668D01*
X131042791Y-76039282D01*
X131147873Y-76067438D01*
X131160111Y-76071593D01*
X131241252Y-76105203D01*
X131245167Y-76106926D01*
X131338496Y-76150446D01*
X131348368Y-76155749D01*
X131425101Y-76202771D01*
X131430099Y-76206049D01*
X131512808Y-76263962D01*
X131520301Y-76269763D01*
X131551222Y-76296172D01*
X131589319Y-76328710D01*
X131595027Y-76333986D01*
X131666012Y-76404971D01*
X131671288Y-76410679D01*
X131730228Y-76479688D01*
X131736044Y-76487200D01*
X131793933Y-76569874D01*
X131797238Y-76574914D01*
X131844240Y-76651614D01*
X131849552Y-76661502D01*
X131893072Y-76754831D01*
X131894812Y-76758785D01*
X131928401Y-76839877D01*
X131932564Y-76852139D01*
X131960705Y-76957164D01*
X131961342Y-76959675D01*
X131980483Y-77039399D01*
X131982842Y-77053883D01*
X131991779Y-77156043D01*
X131978015Y-77215660D01*
X131931838Y-77255801D01*
X131870885Y-77261133D01*
X131823152Y-77234675D01*
X131688811Y-77100334D01*
X131502481Y-76969865D01*
X131296323Y-76873732D01*
X131100000Y-76821127D01*
X131100000Y-77566313D01*
X131059844Y-77540507D01*
X130921889Y-77500000D01*
X130778111Y-77500000D01*
X130640156Y-77540507D01*
X130600000Y-77566313D01*
X130600000Y-76821127D01*
X130403676Y-76873732D01*
X130197518Y-76969865D01*
X130011188Y-77100334D01*
X129850334Y-77261188D01*
X129719865Y-77447518D01*
X129623733Y-77653676D01*
X129564857Y-77873402D01*
X129550000Y-78043228D01*
X129550000Y-78499999D01*
X129550001Y-78500000D01*
X130350000Y-78500000D01*
X130350000Y-79000000D01*
X129550001Y-79000000D01*
X129550000Y-79000001D01*
X129550000Y-79456771D01*
X129564857Y-79626597D01*
X129623733Y-79846323D01*
X129719865Y-80052481D01*
X129850334Y-80238811D01*
X130011188Y-80399665D01*
X130197518Y-80530134D01*
X130403676Y-80626266D01*
X130600000Y-80678872D01*
X130600000Y-79933686D01*
X130640156Y-79959493D01*
X130778111Y-80000000D01*
X130921889Y-80000000D01*
X131059844Y-79959493D01*
X131100000Y-79933686D01*
X131100000Y-80678871D01*
X131296323Y-80626266D01*
X131502481Y-80530134D01*
X131688811Y-80399665D01*
X131830496Y-80257981D01*
X131885013Y-80230204D01*
X131945445Y-80239775D01*
X131988710Y-80283040D01*
X131999500Y-80327985D01*
X131999500Y-80598420D01*
X132030289Y-80792821D01*
X132091116Y-80980025D01*
X132169942Y-81134732D01*
X132180476Y-81155405D01*
X132296172Y-81314646D01*
X132435354Y-81453828D01*
X132594595Y-81569524D01*
X132769975Y-81658884D01*
X132957174Y-81719709D01*
X132957175Y-81719709D01*
X132957178Y-81719710D01*
X133151580Y-81750500D01*
X133151583Y-81750500D01*
X133249901Y-81750500D01*
X133746110Y-81750500D01*
X133753875Y-81750805D01*
X133755738Y-81750951D01*
X133806771Y-81754967D01*
X133807087Y-81754994D01*
X133946135Y-81767159D01*
X133960580Y-81769512D01*
X134040370Y-81788668D01*
X134042791Y-81789282D01*
X134147873Y-81817438D01*
X134160111Y-81821593D01*
X134241252Y-81855203D01*
X134245167Y-81856926D01*
X134338496Y-81900446D01*
X134348368Y-81905749D01*
X134425101Y-81952771D01*
X134430099Y-81956049D01*
X134512808Y-82013962D01*
X134520301Y-82019763D01*
X134585089Y-82075097D01*
X134589319Y-82078710D01*
X134595027Y-82083986D01*
X134666012Y-82154971D01*
X134671288Y-82160679D01*
X134715994Y-82213023D01*
X134730228Y-82229688D01*
X134736042Y-82237197D01*
X134786744Y-82309608D01*
X134793933Y-82319874D01*
X134797238Y-82324914D01*
X134835168Y-82386810D01*
X134844240Y-82401614D01*
X134849552Y-82411502D01*
X134893072Y-82504831D01*
X134894812Y-82508785D01*
X134928401Y-82589877D01*
X134932564Y-82602139D01*
X134960705Y-82707164D01*
X134961342Y-82709675D01*
X134980483Y-82789399D01*
X134982842Y-82803883D01*
X134994979Y-82942611D01*
X134995051Y-82943471D01*
X134999195Y-82996124D01*
X134999500Y-83003892D01*
X134999500Y-121996107D01*
X134999195Y-122003875D01*
X134995051Y-122056527D01*
X134994979Y-122057387D01*
X134982842Y-122196115D01*
X134980483Y-122210599D01*
X134961342Y-122290323D01*
X134960705Y-122292834D01*
X134932564Y-122397859D01*
X134928401Y-122410121D01*
X134894812Y-122491213D01*
X134893072Y-122495167D01*
X134849552Y-122588496D01*
X134844240Y-122598384D01*
X134797249Y-122675067D01*
X134793933Y-122680124D01*
X134736044Y-122762798D01*
X134730228Y-122770310D01*
X134671288Y-122839319D01*
X134666012Y-122845027D01*
X134595027Y-122916012D01*
X134589319Y-122921288D01*
X134520310Y-122980228D01*
X134512798Y-122986044D01*
X134430124Y-123043933D01*
X134425067Y-123047249D01*
X134348384Y-123094240D01*
X134338496Y-123099552D01*
X134245167Y-123143072D01*
X134241213Y-123144812D01*
X134160121Y-123178401D01*
X134147859Y-123182564D01*
X134042834Y-123210705D01*
X134040323Y-123211342D01*
X133960599Y-123230483D01*
X133946115Y-123232842D01*
X133807387Y-123244979D01*
X133806527Y-123245051D01*
X133753875Y-123249195D01*
X133746107Y-123249500D01*
X116253893Y-123249500D01*
X116246125Y-123249195D01*
X116193471Y-123245051D01*
X116192611Y-123244979D01*
X116053883Y-123232842D01*
X116039399Y-123230483D01*
X115959675Y-123211342D01*
X115957164Y-123210705D01*
X115852139Y-123182564D01*
X115839877Y-123178401D01*
X115758785Y-123144812D01*
X115754831Y-123143072D01*
X115661502Y-123099552D01*
X115651619Y-123094242D01*
X115574914Y-123047238D01*
X115569884Y-123043939D01*
X115487197Y-122986042D01*
X115479688Y-122980228D01*
X115449185Y-122954176D01*
X115431259Y-122938865D01*
X115410679Y-122921288D01*
X115404971Y-122916012D01*
X115333986Y-122845027D01*
X115328710Y-122839319D01*
X115319240Y-122828231D01*
X115269763Y-122770301D01*
X115263962Y-122762808D01*
X115206049Y-122680099D01*
X115202771Y-122675101D01*
X115155749Y-122598368D01*
X115150446Y-122588496D01*
X115106926Y-122495167D01*
X115105203Y-122491252D01*
X115071593Y-122410111D01*
X115067438Y-122397873D01*
X115039282Y-122292791D01*
X115038668Y-122290370D01*
X115019512Y-122210580D01*
X115017159Y-122196135D01*
X115004994Y-122057087D01*
X115004967Y-122056771D01*
X115004293Y-122048207D01*
X124229500Y-122048207D01*
X124244155Y-122192321D01*
X124302026Y-122376768D01*
X124302027Y-122376770D01*
X124395838Y-122545787D01*
X124395840Y-122545790D01*
X124521759Y-122692468D01*
X124621597Y-122769748D01*
X124674627Y-122810796D01*
X124848180Y-122895928D01*
X124848184Y-122895930D01*
X125035326Y-122944385D01*
X125228390Y-122954176D01*
X125419474Y-122924903D01*
X125497703Y-122895930D01*
X125600749Y-122857766D01*
X125600751Y-122857764D01*
X125600753Y-122857764D01*
X125764807Y-122755509D01*
X125904919Y-122622323D01*
X126015353Y-122463658D01*
X126091587Y-122286012D01*
X126130500Y-122096656D01*
X126130500Y-122048207D01*
X126769500Y-122048207D01*
X126784155Y-122192321D01*
X126842026Y-122376768D01*
X126842027Y-122376770D01*
X126935838Y-122545787D01*
X126935840Y-122545790D01*
X127061759Y-122692468D01*
X127161597Y-122769748D01*
X127214627Y-122810796D01*
X127388180Y-122895928D01*
X127388184Y-122895930D01*
X127575326Y-122944385D01*
X127768390Y-122954176D01*
X127959474Y-122924903D01*
X128037703Y-122895930D01*
X128140749Y-122857766D01*
X128140751Y-122857764D01*
X128140753Y-122857764D01*
X128304807Y-122755509D01*
X128444919Y-122622323D01*
X128555353Y-122463658D01*
X128631587Y-122286012D01*
X128670500Y-122096656D01*
X128670500Y-122048207D01*
X129309500Y-122048207D01*
X129324155Y-122192321D01*
X129382026Y-122376768D01*
X129382027Y-122376770D01*
X129475838Y-122545787D01*
X129475840Y-122545790D01*
X129601759Y-122692468D01*
X129701597Y-122769748D01*
X129754627Y-122810796D01*
X129928180Y-122895928D01*
X129928184Y-122895930D01*
X130115326Y-122944385D01*
X130308390Y-122954176D01*
X130499474Y-122924903D01*
X130577703Y-122895930D01*
X130680749Y-122857766D01*
X130680751Y-122857764D01*
X130680753Y-122857764D01*
X130821966Y-122769746D01*
X131849500Y-122769746D01*
X131849501Y-122769758D01*
X131861132Y-122828227D01*
X131861134Y-122828233D01*
X131880868Y-122857766D01*
X131905448Y-122894552D01*
X131971769Y-122938867D01*
X132016231Y-122947711D01*
X132030241Y-122950498D01*
X132030246Y-122950498D01*
X132030252Y-122950500D01*
X132030253Y-122950500D01*
X133569747Y-122950500D01*
X133569748Y-122950500D01*
X133628231Y-122938867D01*
X133694552Y-122894552D01*
X133738867Y-122828231D01*
X133750500Y-122769748D01*
X133750500Y-120730252D01*
X133738867Y-120671769D01*
X133694552Y-120605448D01*
X133694548Y-120605445D01*
X133628233Y-120561134D01*
X133628231Y-120561133D01*
X133628228Y-120561132D01*
X133628227Y-120561132D01*
X133569758Y-120549501D01*
X133569748Y-120549500D01*
X132030252Y-120549500D01*
X132030251Y-120549500D01*
X132030241Y-120549501D01*
X131971772Y-120561132D01*
X131971766Y-120561134D01*
X131905451Y-120605445D01*
X131905445Y-120605451D01*
X131861134Y-120671766D01*
X131861132Y-120671772D01*
X131849501Y-120730241D01*
X131849500Y-120730253D01*
X131849500Y-122769746D01*
X130821966Y-122769746D01*
X130844807Y-122755509D01*
X130984919Y-122622323D01*
X131095353Y-122463658D01*
X131171587Y-122286012D01*
X131210500Y-122096656D01*
X131210500Y-121451794D01*
X131195845Y-121307679D01*
X131137974Y-121123232D01*
X131044159Y-120954209D01*
X130978458Y-120877677D01*
X130918240Y-120807531D01*
X130765372Y-120689203D01*
X130591818Y-120604071D01*
X130591820Y-120604071D01*
X130571600Y-120598835D01*
X130404674Y-120555615D01*
X130404672Y-120555614D01*
X130404669Y-120555614D01*
X130260560Y-120548306D01*
X130211610Y-120545824D01*
X130211608Y-120545824D01*
X130211605Y-120545824D01*
X130020525Y-120575096D01*
X129839250Y-120642233D01*
X129675191Y-120744492D01*
X129675185Y-120744497D01*
X129535082Y-120877675D01*
X129424651Y-121036334D01*
X129424645Y-121036345D01*
X129348413Y-121213986D01*
X129348413Y-121213988D01*
X129309500Y-121403344D01*
X129309500Y-121403347D01*
X129309500Y-122048207D01*
X128670500Y-122048207D01*
X128670500Y-121451794D01*
X128655845Y-121307679D01*
X128597974Y-121123232D01*
X128504159Y-120954209D01*
X128438458Y-120877677D01*
X128378240Y-120807531D01*
X128225372Y-120689203D01*
X128051818Y-120604071D01*
X128051820Y-120604071D01*
X128031600Y-120598835D01*
X127864674Y-120555615D01*
X127864672Y-120555614D01*
X127864669Y-120555614D01*
X127720560Y-120548306D01*
X127671610Y-120545824D01*
X127671608Y-120545824D01*
X127671605Y-120545824D01*
X127480525Y-120575096D01*
X127299250Y-120642233D01*
X127135191Y-120744492D01*
X127135185Y-120744497D01*
X126995082Y-120877675D01*
X126884651Y-121036334D01*
X126884645Y-121036345D01*
X126808413Y-121213986D01*
X126808413Y-121213988D01*
X126769500Y-121403344D01*
X126769500Y-121403347D01*
X126769500Y-122048207D01*
X126130500Y-122048207D01*
X126130500Y-121451794D01*
X126115845Y-121307679D01*
X126057974Y-121123232D01*
X125964159Y-120954209D01*
X125898458Y-120877677D01*
X125838240Y-120807531D01*
X125685372Y-120689203D01*
X125511818Y-120604071D01*
X125511820Y-120604071D01*
X125491600Y-120598835D01*
X125324674Y-120555615D01*
X125324672Y-120555614D01*
X125324669Y-120555614D01*
X125180560Y-120548306D01*
X125131610Y-120545824D01*
X125131608Y-120545824D01*
X125131605Y-120545824D01*
X124940525Y-120575096D01*
X124759250Y-120642233D01*
X124595191Y-120744492D01*
X124595185Y-120744497D01*
X124455082Y-120877675D01*
X124344651Y-121036334D01*
X124344645Y-121036345D01*
X124268413Y-121213986D01*
X124268413Y-121213988D01*
X124229500Y-121403344D01*
X124229500Y-121403347D01*
X124229500Y-122048207D01*
X115004293Y-122048207D01*
X115000805Y-122003875D01*
X115000500Y-121996110D01*
X115000500Y-116249999D01*
X124600000Y-116249999D01*
X124600001Y-116250000D01*
X125316314Y-116250000D01*
X125290507Y-116290156D01*
X125250000Y-116428111D01*
X125250000Y-116571889D01*
X125290507Y-116709844D01*
X125316314Y-116750000D01*
X124600002Y-116750000D01*
X124600001Y-116750001D01*
X124600001Y-117394791D01*
X124602909Y-117419874D01*
X124648213Y-117522477D01*
X124727522Y-117601786D01*
X124830127Y-117647090D01*
X124855203Y-117649999D01*
X125499998Y-117649999D01*
X125500000Y-117649998D01*
X125500000Y-116935501D01*
X125607685Y-116984680D01*
X125714237Y-117000000D01*
X125785763Y-117000000D01*
X125892315Y-116984680D01*
X126000000Y-116935501D01*
X126000000Y-117649998D01*
X126000001Y-117649999D01*
X126644790Y-117649999D01*
X126644791Y-117649998D01*
X126669874Y-117647090D01*
X126772477Y-117601786D01*
X126851786Y-117522477D01*
X126897090Y-117419872D01*
X126899999Y-117394797D01*
X126900000Y-117394795D01*
X126900000Y-116750001D01*
X126899999Y-116750000D01*
X126183686Y-116750000D01*
X126209493Y-116709844D01*
X126250000Y-116571889D01*
X126250000Y-116428111D01*
X126209493Y-116290156D01*
X126183686Y-116250000D01*
X126899998Y-116250000D01*
X126899999Y-116249999D01*
X126899999Y-115605210D01*
X126899998Y-115605208D01*
X126897090Y-115580125D01*
X126851786Y-115477522D01*
X126772477Y-115398213D01*
X126669872Y-115352909D01*
X126644797Y-115350000D01*
X126000001Y-115350000D01*
X126000000Y-115350001D01*
X126000000Y-116064498D01*
X125892315Y-116015320D01*
X125785763Y-116000000D01*
X125714237Y-116000000D01*
X125607685Y-116015320D01*
X125500000Y-116064498D01*
X125500000Y-115350001D01*
X125499999Y-115350000D01*
X124855210Y-115350000D01*
X124855207Y-115350001D01*
X124830125Y-115352909D01*
X124727522Y-115398213D01*
X124648213Y-115477522D01*
X124602909Y-115580127D01*
X124600000Y-115605202D01*
X124600000Y-116249999D01*
X115000500Y-116249999D01*
X115000500Y-109789999D01*
X124600000Y-109789999D01*
X124600001Y-109790000D01*
X125316314Y-109790000D01*
X125290507Y-109830156D01*
X125250000Y-109968111D01*
X125250000Y-110111889D01*
X125290507Y-110249844D01*
X125316314Y-110290000D01*
X124600002Y-110290000D01*
X124600001Y-110290001D01*
X124600001Y-110934791D01*
X124602909Y-110959874D01*
X124648213Y-111062477D01*
X124727522Y-111141786D01*
X124830127Y-111187090D01*
X124855203Y-111189999D01*
X125499998Y-111189999D01*
X125500000Y-111189998D01*
X125500000Y-110475501D01*
X125607685Y-110524680D01*
X125714237Y-110540000D01*
X125785763Y-110540000D01*
X125892315Y-110524680D01*
X126000000Y-110475501D01*
X126000000Y-111189998D01*
X126000001Y-111189999D01*
X126644790Y-111189999D01*
X126644791Y-111189998D01*
X126669874Y-111187090D01*
X126772477Y-111141786D01*
X126851786Y-111062477D01*
X126897090Y-110959872D01*
X126899999Y-110934797D01*
X126900000Y-110934795D01*
X126900000Y-110290001D01*
X126899999Y-110290000D01*
X126183686Y-110290000D01*
X126209493Y-110249844D01*
X126250000Y-110111889D01*
X126250000Y-109968111D01*
X126209493Y-109830156D01*
X126183686Y-109790000D01*
X126899998Y-109790000D01*
X126899999Y-109789999D01*
X126899999Y-109145210D01*
X126899998Y-109145208D01*
X126897090Y-109120125D01*
X126851786Y-109017522D01*
X126772477Y-108938213D01*
X126669872Y-108892909D01*
X126644797Y-108890000D01*
X126000001Y-108890000D01*
X126000000Y-108890001D01*
X126000000Y-109604498D01*
X125892315Y-109555320D01*
X125785763Y-109540000D01*
X125714237Y-109540000D01*
X125607685Y-109555320D01*
X125500000Y-109604498D01*
X125500000Y-108890001D01*
X125499999Y-108890000D01*
X124855210Y-108890000D01*
X124855207Y-108890001D01*
X124830125Y-108892909D01*
X124727522Y-108938213D01*
X124648213Y-109017522D01*
X124602909Y-109120127D01*
X124600000Y-109145202D01*
X124600000Y-109789999D01*
X115000500Y-109789999D01*
X115000500Y-98464248D01*
X115824500Y-98464248D01*
X115840049Y-98562419D01*
X115840050Y-98562423D01*
X115898243Y-98676631D01*
X115900342Y-98680751D01*
X115994249Y-98774658D01*
X116112580Y-98834951D01*
X116179130Y-98845491D01*
X116210751Y-98850500D01*
X116210754Y-98850500D01*
X116789249Y-98850500D01*
X116817803Y-98845976D01*
X116887420Y-98834951D01*
X117005751Y-98774658D01*
X117099658Y-98680751D01*
X117159951Y-98562420D01*
X117175500Y-98464246D01*
X117175500Y-97960754D01*
X117159951Y-97862580D01*
X117099658Y-97744249D01*
X117005751Y-97650342D01*
X116956996Y-97625500D01*
X116880477Y-97586511D01*
X116882005Y-97583511D01*
X116844402Y-97556185D01*
X116825500Y-97498002D01*
X116825500Y-97256879D01*
X116844407Y-97198688D01*
X116893906Y-97162725D01*
X116900299Y-97160647D01*
X116900299Y-97160646D01*
X116900304Y-97160646D01*
X117013342Y-97103050D01*
X117103050Y-97013342D01*
X117160646Y-96900304D01*
X117175500Y-96806519D01*
X117175499Y-96343482D01*
X117169950Y-96308442D01*
X117160647Y-96249700D01*
X117160646Y-96249698D01*
X117160646Y-96249696D01*
X117103050Y-96136658D01*
X117013342Y-96046950D01*
X116900304Y-95989354D01*
X116900305Y-95989354D01*
X116806522Y-95974500D01*
X116193479Y-95974500D01*
X116193476Y-95974501D01*
X116099700Y-95989352D01*
X116099695Y-95989354D01*
X115986659Y-96046949D01*
X115896949Y-96136659D01*
X115839354Y-96249695D01*
X115824500Y-96343477D01*
X115824500Y-96806520D01*
X115824501Y-96806523D01*
X115839352Y-96900299D01*
X115839354Y-96900304D01*
X115896950Y-97013342D01*
X115986658Y-97103050D01*
X116099696Y-97160646D01*
X116099700Y-97160646D01*
X116106085Y-97162721D01*
X116155588Y-97198681D01*
X116174500Y-97256870D01*
X116174500Y-97498002D01*
X116155593Y-97556193D01*
X116117995Y-97583512D01*
X116119523Y-97586511D01*
X115994250Y-97650341D01*
X115900341Y-97744250D01*
X115840050Y-97862576D01*
X115840049Y-97862580D01*
X115824500Y-97960751D01*
X115824500Y-98464248D01*
X115000500Y-98464248D01*
X115000500Y-95156520D01*
X115824500Y-95156520D01*
X115824501Y-95156523D01*
X115839352Y-95250299D01*
X115839354Y-95250304D01*
X115896950Y-95363342D01*
X115986658Y-95453050D01*
X116099696Y-95510646D01*
X116193481Y-95525500D01*
X116806518Y-95525499D01*
X116806520Y-95525499D01*
X116806521Y-95525498D01*
X116853411Y-95518072D01*
X116900299Y-95510647D01*
X116900299Y-95510646D01*
X116900304Y-95510646D01*
X117013342Y-95453050D01*
X117103050Y-95363342D01*
X117133004Y-95304555D01*
X117176268Y-95261290D01*
X117221213Y-95250500D01*
X118999166Y-95250500D01*
X119057357Y-95269407D01*
X119069170Y-95279496D01*
X119286832Y-95497158D01*
X119314609Y-95551675D01*
X119315106Y-95579095D01*
X119294355Y-95749998D01*
X119294355Y-95750000D01*
X119314860Y-95918872D01*
X119375182Y-96077930D01*
X119471817Y-96217929D01*
X119599148Y-96330734D01*
X119749775Y-96409790D01*
X119914944Y-96450500D01*
X119914947Y-96450500D01*
X120085053Y-96450500D01*
X120085056Y-96450500D01*
X120250225Y-96409790D01*
X120400852Y-96330734D01*
X120528183Y-96217929D01*
X120624818Y-96077930D01*
X120685140Y-95918872D01*
X120705645Y-95750000D01*
X120704779Y-95742872D01*
X120684893Y-95579094D01*
X120696648Y-95519049D01*
X120713163Y-95497161D01*
X121782804Y-94427520D01*
X121837319Y-94399745D01*
X121897751Y-94409316D01*
X121941016Y-94452581D01*
X121944270Y-94459640D01*
X121979812Y-94545445D01*
X121988117Y-94565494D01*
X122041695Y-94635318D01*
X122062119Y-94692993D01*
X122062153Y-94695585D01*
X122062153Y-95731789D01*
X122061531Y-95742872D01*
X122057383Y-95779686D01*
X122057383Y-95779691D01*
X122068097Y-95836317D01*
X122068717Y-95839965D01*
X122077305Y-95896940D01*
X122079493Y-95904034D01*
X122079070Y-95904164D01*
X122079762Y-95906266D01*
X122080179Y-95906121D01*
X122082628Y-95913121D01*
X122109559Y-95964077D01*
X122111227Y-95967381D01*
X122136227Y-96019294D01*
X122140406Y-96025423D01*
X122140042Y-96025670D01*
X122141330Y-96027484D01*
X122141683Y-96027224D01*
X122146087Y-96033191D01*
X122186853Y-96073958D01*
X122189422Y-96076625D01*
X122228597Y-96118847D01*
X122234396Y-96123471D01*
X122234120Y-96123816D01*
X122245253Y-96132357D01*
X122383434Y-96270538D01*
X124409629Y-98296732D01*
X124417025Y-98305009D01*
X124440121Y-98333970D01*
X124473844Y-98356962D01*
X124487745Y-98366440D01*
X124490757Y-98368577D01*
X124537118Y-98402793D01*
X124537121Y-98402794D01*
X124543677Y-98406259D01*
X124543469Y-98406651D01*
X124545450Y-98407651D01*
X124545643Y-98407253D01*
X124552327Y-98410472D01*
X124607407Y-98427461D01*
X124610909Y-98428613D01*
X124655485Y-98444211D01*
X124665301Y-98447646D01*
X124672593Y-98449026D01*
X124672510Y-98449460D01*
X124674693Y-98449830D01*
X124674759Y-98449394D01*
X124682098Y-98450500D01*
X124739716Y-98450500D01*
X124743417Y-98450569D01*
X124745519Y-98450647D01*
X124801010Y-98452724D01*
X124801016Y-98452722D01*
X124808385Y-98451893D01*
X124808434Y-98452331D01*
X124822344Y-98450500D01*
X127469136Y-98450500D01*
X127480219Y-98451122D01*
X127482595Y-98451389D01*
X127517035Y-98455270D01*
X127573684Y-98444550D01*
X127577267Y-98443941D01*
X127634287Y-98435348D01*
X127634296Y-98435343D01*
X127641381Y-98433159D01*
X127641512Y-98433584D01*
X127643613Y-98432892D01*
X127643467Y-98432473D01*
X127650463Y-98430024D01*
X127650472Y-98430023D01*
X127701444Y-98403082D01*
X127704740Y-98401419D01*
X127714677Y-98396633D01*
X127756642Y-98376425D01*
X127756646Y-98376421D01*
X127762778Y-98372242D01*
X127763028Y-98372609D01*
X127764832Y-98371329D01*
X127764568Y-98370971D01*
X127770525Y-98366572D01*
X127770538Y-98366566D01*
X127811316Y-98325786D01*
X127813927Y-98323271D01*
X127856194Y-98284055D01*
X127856197Y-98284048D01*
X127860820Y-98278253D01*
X127861166Y-98278529D01*
X127869703Y-98267399D01*
X128597675Y-97539426D01*
X128652190Y-97511651D01*
X128712622Y-97521222D01*
X128737677Y-97539425D01*
X128746780Y-97548528D01*
X128746782Y-97548529D01*
X128866867Y-97609716D01*
X128866869Y-97609716D01*
X128866874Y-97609719D01*
X128942541Y-97621703D01*
X128966510Y-97625500D01*
X128966512Y-97625500D01*
X129533490Y-97625500D01*
X129554885Y-97622111D01*
X129633126Y-97609719D01*
X129753220Y-97548528D01*
X129848528Y-97453220D01*
X129909719Y-97333126D01*
X129925500Y-97233488D01*
X129925500Y-96716512D01*
X129924088Y-96707599D01*
X129921451Y-96690945D01*
X129909719Y-96616874D01*
X129909716Y-96616869D01*
X129909716Y-96616867D01*
X129848529Y-96496782D01*
X129848528Y-96496780D01*
X129753220Y-96401472D01*
X129750844Y-96400261D01*
X129629554Y-96338460D01*
X129586290Y-96295195D01*
X129575500Y-96250251D01*
X129575500Y-95699500D01*
X129594407Y-95641309D01*
X129643907Y-95605345D01*
X129674500Y-95600500D01*
X129919747Y-95600500D01*
X129919748Y-95600500D01*
X129924504Y-95599554D01*
X129980685Y-95588379D01*
X130019315Y-95588379D01*
X130080241Y-95600498D01*
X130080246Y-95600498D01*
X130080252Y-95600500D01*
X130080253Y-95600500D01*
X130325500Y-95600500D01*
X130383691Y-95619407D01*
X130419655Y-95668907D01*
X130424500Y-95699500D01*
X130424500Y-96432917D01*
X130405596Y-96491103D01*
X130401471Y-96496780D01*
X130340283Y-96616867D01*
X130340281Y-96616874D01*
X130324500Y-96716510D01*
X130324500Y-97233489D01*
X130340281Y-97333125D01*
X130340283Y-97333132D01*
X130401470Y-97453217D01*
X130401472Y-97453220D01*
X130496780Y-97548528D01*
X130496782Y-97548529D01*
X130616867Y-97609716D01*
X130616869Y-97609716D01*
X130616874Y-97609719D01*
X130692541Y-97621703D01*
X130716510Y-97625500D01*
X130716512Y-97625500D01*
X131283490Y-97625500D01*
X131304885Y-97622111D01*
X131383126Y-97609719D01*
X131503220Y-97548528D01*
X131598528Y-97453220D01*
X131659719Y-97333126D01*
X131675500Y-97233488D01*
X131675500Y-96716512D01*
X131674088Y-96707599D01*
X131671451Y-96690945D01*
X131659719Y-96616874D01*
X131659716Y-96616869D01*
X131659716Y-96616867D01*
X131598529Y-96496782D01*
X131598528Y-96496780D01*
X131503220Y-96401472D01*
X131503217Y-96401470D01*
X131383132Y-96340283D01*
X131383127Y-96340281D01*
X131383126Y-96340281D01*
X131349913Y-96335020D01*
X131283490Y-96324500D01*
X131283488Y-96324500D01*
X131174500Y-96324500D01*
X131116309Y-96305593D01*
X131080345Y-96256093D01*
X131075500Y-96225500D01*
X131075500Y-95528268D01*
X131087632Y-95488277D01*
X131085134Y-95487243D01*
X131088863Y-95478235D01*
X131088867Y-95478231D01*
X131100500Y-95419748D01*
X131100500Y-93980252D01*
X131088867Y-93921769D01*
X131044552Y-93855448D01*
X131044548Y-93855445D01*
X130978233Y-93811134D01*
X130978231Y-93811133D01*
X130978228Y-93811132D01*
X130978227Y-93811132D01*
X130919758Y-93799501D01*
X130919748Y-93799500D01*
X130674500Y-93799500D01*
X130616309Y-93780593D01*
X130580345Y-93731093D01*
X130575500Y-93700500D01*
X130575500Y-93675833D01*
X130594407Y-93617642D01*
X130604490Y-93605835D01*
X132705496Y-91504828D01*
X132760013Y-91477052D01*
X132820445Y-91486623D01*
X132863710Y-91529888D01*
X132874500Y-91574833D01*
X132874500Y-99874165D01*
X132855593Y-99932356D01*
X132845504Y-99944169D01*
X126278175Y-106511497D01*
X126223658Y-106539274D01*
X126163226Y-106529703D01*
X126161548Y-106528827D01*
X126153954Y-106524768D01*
X126107865Y-106510787D01*
X125955934Y-106464699D01*
X125955929Y-106464698D01*
X125750003Y-106444417D01*
X125749997Y-106444417D01*
X125544070Y-106464698D01*
X125544065Y-106464699D01*
X125346045Y-106524768D01*
X125163547Y-106622316D01*
X125003595Y-106753585D01*
X125003585Y-106753595D01*
X124872316Y-106913547D01*
X124774768Y-107096045D01*
X124714699Y-107294065D01*
X124714698Y-107294070D01*
X124694417Y-107499996D01*
X124694417Y-107500003D01*
X124714698Y-107705929D01*
X124714699Y-107705934D01*
X124774768Y-107903954D01*
X124872316Y-108086452D01*
X125003585Y-108246404D01*
X125003590Y-108246410D01*
X125003595Y-108246414D01*
X125163547Y-108377683D01*
X125163548Y-108377683D01*
X125163550Y-108377685D01*
X125346046Y-108475232D01*
X125483997Y-108517078D01*
X125544065Y-108535300D01*
X125544070Y-108535301D01*
X125749997Y-108555583D01*
X125750000Y-108555583D01*
X125750003Y-108555583D01*
X125955929Y-108535301D01*
X125955934Y-108535300D01*
X126153954Y-108475232D01*
X126336450Y-108377685D01*
X126496410Y-108246410D01*
X126627685Y-108086450D01*
X126725232Y-107903954D01*
X126785300Y-107705934D01*
X126785301Y-107705929D01*
X126805583Y-107500003D01*
X126805583Y-107499996D01*
X126785301Y-107294070D01*
X126785300Y-107294065D01*
X126767078Y-107233997D01*
X126725232Y-107096046D01*
X126721195Y-107088493D01*
X126710440Y-107028261D01*
X126737142Y-106973210D01*
X126738453Y-106971871D01*
X133255496Y-100454829D01*
X133310013Y-100427052D01*
X133370445Y-100436623D01*
X133413710Y-100479888D01*
X133424500Y-100524833D01*
X133424500Y-105784165D01*
X133405593Y-105842356D01*
X133395504Y-105854169D01*
X126278175Y-112971497D01*
X126223658Y-112999274D01*
X126163226Y-112989703D01*
X126161548Y-112988827D01*
X126153954Y-112984768D01*
X126107865Y-112970787D01*
X125955934Y-112924699D01*
X125955929Y-112924698D01*
X125750003Y-112904417D01*
X125749997Y-112904417D01*
X125544070Y-112924698D01*
X125544065Y-112924699D01*
X125346045Y-112984768D01*
X125163547Y-113082316D01*
X125003595Y-113213585D01*
X125003585Y-113213595D01*
X124872316Y-113373547D01*
X124774768Y-113556045D01*
X124714699Y-113754065D01*
X124714698Y-113754070D01*
X124694417Y-113959996D01*
X124694417Y-113960003D01*
X124714698Y-114165929D01*
X124714699Y-114165934D01*
X124774768Y-114363954D01*
X124872316Y-114546452D01*
X125003585Y-114706404D01*
X125003590Y-114706410D01*
X125003595Y-114706414D01*
X125163547Y-114837683D01*
X125163548Y-114837683D01*
X125163550Y-114837685D01*
X125346046Y-114935232D01*
X125483997Y-114977078D01*
X125544065Y-114995300D01*
X125544070Y-114995301D01*
X125749997Y-115015583D01*
X125750000Y-115015583D01*
X125750003Y-115015583D01*
X125955929Y-114995301D01*
X125955934Y-114995300D01*
X126153954Y-114935232D01*
X126336450Y-114837685D01*
X126496410Y-114706410D01*
X126627685Y-114546450D01*
X126725232Y-114363954D01*
X126785300Y-114165934D01*
X126785301Y-114165929D01*
X126805583Y-113960003D01*
X126805583Y-113959996D01*
X126785301Y-113754070D01*
X126785300Y-113754065D01*
X126767078Y-113693997D01*
X126725232Y-113556046D01*
X126721195Y-113548493D01*
X126710440Y-113488261D01*
X126737142Y-113433210D01*
X126738453Y-113431871D01*
X133967072Y-106203253D01*
X133973431Y-106197428D01*
X134003194Y-106172455D01*
X134022627Y-106138793D01*
X134027266Y-106131513D01*
X134033431Y-106122707D01*
X134049553Y-106099684D01*
X134049942Y-106098231D01*
X134059833Y-106074352D01*
X134060588Y-106073045D01*
X134067338Y-106034761D01*
X134069199Y-106026362D01*
X134079263Y-105988807D01*
X134075877Y-105950102D01*
X134075500Y-105941474D01*
X134075500Y-87518522D01*
X134075877Y-87509893D01*
X134076649Y-87501070D01*
X134079263Y-87471193D01*
X134069201Y-87433642D01*
X134067335Y-87425224D01*
X134066686Y-87421545D01*
X134060588Y-87386955D01*
X134060588Y-87386954D01*
X134059840Y-87385659D01*
X134049942Y-87361767D01*
X134049554Y-87360316D01*
X134027257Y-87328473D01*
X134022626Y-87321203D01*
X134021137Y-87318624D01*
X134003194Y-87287545D01*
X133973434Y-87262573D01*
X133967066Y-87256739D01*
X132974496Y-86264169D01*
X132946719Y-86209652D01*
X132945500Y-86194165D01*
X132945500Y-84461947D01*
X132964407Y-84403756D01*
X133010117Y-84369110D01*
X133040753Y-84357764D01*
X133204807Y-84255509D01*
X133344919Y-84122323D01*
X133455353Y-83963658D01*
X133531587Y-83786012D01*
X133570500Y-83596656D01*
X133570500Y-82951794D01*
X133555845Y-82807679D01*
X133497974Y-82623232D01*
X133432275Y-82504864D01*
X133404161Y-82454212D01*
X133404159Y-82454209D01*
X133278240Y-82307531D01*
X133125372Y-82189203D01*
X132951818Y-82104071D01*
X132951820Y-82104071D01*
X132853871Y-82078710D01*
X132764674Y-82055615D01*
X132764672Y-82055614D01*
X132764669Y-82055614D01*
X132620560Y-82048306D01*
X132571610Y-82045824D01*
X132571608Y-82045824D01*
X132571605Y-82045824D01*
X132380525Y-82075096D01*
X132199250Y-82142233D01*
X132035191Y-82244492D01*
X132035185Y-82244497D01*
X131895082Y-82377675D01*
X131784651Y-82536334D01*
X131784645Y-82536345D01*
X131708413Y-82713986D01*
X131708413Y-82713988D01*
X131669500Y-82903344D01*
X131669500Y-82903347D01*
X131669500Y-83548207D01*
X131684155Y-83692321D01*
X131742026Y-83876768D01*
X131742027Y-83876770D01*
X131835838Y-84045787D01*
X131835840Y-84045790D01*
X131961759Y-84192468D01*
X132089798Y-84291577D01*
X132114627Y-84310796D01*
X132239100Y-84371853D01*
X132283016Y-84414454D01*
X132294500Y-84460735D01*
X132294500Y-86095165D01*
X132275593Y-86153356D01*
X132226093Y-86189320D01*
X132164907Y-86189320D01*
X132125496Y-86165169D01*
X130476112Y-84515785D01*
X130448335Y-84461268D01*
X130457906Y-84400836D01*
X130497194Y-84361547D01*
X130496492Y-84360420D01*
X130530074Y-84339488D01*
X130664807Y-84255509D01*
X130804919Y-84122323D01*
X130915353Y-83963658D01*
X130991587Y-83786012D01*
X131030500Y-83596656D01*
X131030500Y-82951794D01*
X131015845Y-82807679D01*
X130957974Y-82623232D01*
X130892275Y-82504864D01*
X130864161Y-82454212D01*
X130864159Y-82454209D01*
X130738240Y-82307531D01*
X130585372Y-82189203D01*
X130411818Y-82104071D01*
X130411820Y-82104071D01*
X130313871Y-82078710D01*
X130224674Y-82055615D01*
X130224672Y-82055614D01*
X130224669Y-82055614D01*
X130080560Y-82048306D01*
X130031610Y-82045824D01*
X130031608Y-82045824D01*
X130031605Y-82045824D01*
X129840525Y-82075096D01*
X129659250Y-82142233D01*
X129495191Y-82244492D01*
X129495185Y-82244497D01*
X129355082Y-82377675D01*
X129244651Y-82536334D01*
X129244645Y-82536345D01*
X129168413Y-82713986D01*
X129168413Y-82713988D01*
X129129500Y-82903344D01*
X129129500Y-82903347D01*
X129129500Y-83548207D01*
X129144155Y-83692321D01*
X129202026Y-83876768D01*
X129202027Y-83876770D01*
X129285546Y-84027244D01*
X129297255Y-84087299D01*
X129271428Y-84142766D01*
X129217930Y-84172460D01*
X129161101Y-84166753D01*
X129156767Y-84164957D01*
X129156758Y-84164955D01*
X129000001Y-84144318D01*
X128999999Y-84144318D01*
X128843241Y-84164955D01*
X128843233Y-84164957D01*
X128697161Y-84225462D01*
X128697160Y-84225462D01*
X128571723Y-84321713D01*
X128571713Y-84321723D01*
X128475462Y-84447160D01*
X128475462Y-84447161D01*
X128414957Y-84593233D01*
X128414955Y-84593240D01*
X128399116Y-84713552D01*
X128372775Y-84768776D01*
X128319004Y-84797971D01*
X128258342Y-84789985D01*
X128230959Y-84770633D01*
X127960977Y-84500651D01*
X127933200Y-84446134D01*
X127942771Y-84385702D01*
X127978614Y-84346631D01*
X127990074Y-84339488D01*
X128124807Y-84255509D01*
X128264919Y-84122323D01*
X128375353Y-83963658D01*
X128451587Y-83786012D01*
X128490500Y-83596656D01*
X128490500Y-82951794D01*
X128475845Y-82807679D01*
X128417974Y-82623232D01*
X128352275Y-82504864D01*
X128324161Y-82454212D01*
X128324159Y-82454209D01*
X128198240Y-82307531D01*
X128045372Y-82189203D01*
X127871818Y-82104071D01*
X127871820Y-82104071D01*
X127773871Y-82078710D01*
X127684674Y-82055615D01*
X127684672Y-82055614D01*
X127684669Y-82055614D01*
X127540560Y-82048306D01*
X127491610Y-82045824D01*
X127491608Y-82045824D01*
X127491605Y-82045824D01*
X127300525Y-82075096D01*
X127119250Y-82142233D01*
X126955191Y-82244492D01*
X126955185Y-82244497D01*
X126815082Y-82377675D01*
X126730755Y-82498830D01*
X126681994Y-82535789D01*
X126620821Y-82537029D01*
X126570603Y-82502075D01*
X126550520Y-82444280D01*
X126550500Y-82442274D01*
X126550500Y-81639330D01*
X126569407Y-81581139D01*
X126586695Y-81562802D01*
X126710878Y-81460887D01*
X126710877Y-81460887D01*
X126710883Y-81460883D01*
X126835910Y-81308538D01*
X126928814Y-81134727D01*
X126986024Y-80946132D01*
X127005341Y-80750000D01*
X127395287Y-80750000D01*
X127414097Y-80952989D01*
X127469887Y-81149070D01*
X127560751Y-81331551D01*
X127562532Y-81333911D01*
X128016922Y-80879520D01*
X128040507Y-80959844D01*
X128118239Y-81080798D01*
X128226900Y-81174952D01*
X128357685Y-81234680D01*
X128367466Y-81236086D01*
X127919312Y-81684241D01*
X128007581Y-81738895D01*
X128007586Y-81738898D01*
X128197683Y-81812541D01*
X128398070Y-81850000D01*
X128601930Y-81850000D01*
X128802316Y-81812541D01*
X128992415Y-81738897D01*
X128992416Y-81738897D01*
X129080686Y-81684241D01*
X128632531Y-81236086D01*
X128642315Y-81234680D01*
X128773100Y-81174952D01*
X128881761Y-81080798D01*
X128959493Y-80959844D01*
X128983077Y-80879522D01*
X129437466Y-81333911D01*
X129439245Y-81331556D01*
X129439249Y-81331549D01*
X129530112Y-81149070D01*
X129585902Y-80952989D01*
X129604712Y-80750000D01*
X129585902Y-80547010D01*
X129530112Y-80350929D01*
X129439249Y-80168450D01*
X129439244Y-80168441D01*
X129437466Y-80166087D01*
X128983076Y-80620476D01*
X128959493Y-80540156D01*
X128881761Y-80419202D01*
X128773100Y-80325048D01*
X128642315Y-80265320D01*
X128632529Y-80263913D01*
X129080686Y-79815757D01*
X128992418Y-79761104D01*
X128992413Y-79761101D01*
X128802316Y-79687458D01*
X128601930Y-79650000D01*
X128398070Y-79650000D01*
X128197683Y-79687458D01*
X128007586Y-79761101D01*
X128007584Y-79761102D01*
X127919312Y-79815757D01*
X128367468Y-80263913D01*
X128357685Y-80265320D01*
X128226900Y-80325048D01*
X128118239Y-80419202D01*
X128040507Y-80540156D01*
X128016922Y-80620477D01*
X127562533Y-80166087D01*
X127560753Y-80168445D01*
X127560750Y-80168449D01*
X127469887Y-80350929D01*
X127414097Y-80547010D01*
X127395287Y-80750000D01*
X127005341Y-80750000D01*
X126998261Y-80678111D01*
X126986025Y-80553873D01*
X126986024Y-80553870D01*
X126986024Y-80553868D01*
X126928814Y-80365273D01*
X126835910Y-80191462D01*
X126835906Y-80191457D01*
X126710887Y-80039121D01*
X126710878Y-80039112D01*
X126558542Y-79914093D01*
X126558540Y-79914092D01*
X126558538Y-79914090D01*
X126498055Y-79881761D01*
X126384732Y-79821188D01*
X126384730Y-79821187D01*
X126196129Y-79763975D01*
X126196126Y-79763974D01*
X126000003Y-79744659D01*
X125999997Y-79744659D01*
X125803873Y-79763974D01*
X125803870Y-79763975D01*
X125615269Y-79821187D01*
X125615267Y-79821188D01*
X125441467Y-79914087D01*
X125441457Y-79914093D01*
X125289121Y-80039112D01*
X125289112Y-80039121D01*
X125164093Y-80191457D01*
X125164089Y-80191463D01*
X125087310Y-80335107D01*
X125043204Y-80377513D01*
X124982596Y-80385896D01*
X124928635Y-80357053D01*
X124912690Y-80335107D01*
X124902948Y-80316882D01*
X124835910Y-80191462D01*
X124835906Y-80191457D01*
X124710887Y-80039121D01*
X124710878Y-80039112D01*
X124558542Y-79914093D01*
X124558540Y-79914092D01*
X124558538Y-79914090D01*
X124498055Y-79881761D01*
X124384732Y-79821188D01*
X124384730Y-79821187D01*
X124196129Y-79763975D01*
X124196126Y-79763974D01*
X124000003Y-79744659D01*
X123999997Y-79744659D01*
X123803873Y-79763974D01*
X123803870Y-79763975D01*
X123615269Y-79821187D01*
X123615267Y-79821188D01*
X123441467Y-79914087D01*
X123441457Y-79914093D01*
X123289121Y-80039112D01*
X123289112Y-80039121D01*
X123164093Y-80191457D01*
X123164087Y-80191467D01*
X123071188Y-80365267D01*
X123071187Y-80365269D01*
X123013975Y-80553870D01*
X123013974Y-80553873D01*
X122994659Y-80749996D01*
X122994659Y-80750003D01*
X123013974Y-80946126D01*
X123013975Y-80946129D01*
X123071187Y-81134730D01*
X123071188Y-81134732D01*
X123124483Y-81234438D01*
X123164090Y-81308538D01*
X123164092Y-81308540D01*
X123164093Y-81308542D01*
X123289112Y-81460878D01*
X123289121Y-81460887D01*
X123413305Y-81562802D01*
X123446292Y-81614333D01*
X123449500Y-81639330D01*
X123449500Y-82441801D01*
X123430593Y-82499992D01*
X123381093Y-82535956D01*
X123319907Y-82535956D01*
X123270407Y-82499992D01*
X123263940Y-82489846D01*
X123244161Y-82454212D01*
X123244159Y-82454209D01*
X123118240Y-82307531D01*
X122965372Y-82189203D01*
X122791818Y-82104071D01*
X122791820Y-82104071D01*
X122693871Y-82078710D01*
X122604674Y-82055615D01*
X122604672Y-82055614D01*
X122604669Y-82055614D01*
X122460560Y-82048306D01*
X122411610Y-82045824D01*
X122411608Y-82045824D01*
X122411605Y-82045824D01*
X122220525Y-82075096D01*
X122039250Y-82142233D01*
X121875191Y-82244492D01*
X121871218Y-82247568D01*
X121869884Y-82245844D01*
X121822485Y-82268490D01*
X121762317Y-82257378D01*
X121720171Y-82213023D01*
X121710500Y-82170345D01*
X121710500Y-81805088D01*
X121729407Y-81746897D01*
X121778907Y-81710933D01*
X121780730Y-81710360D01*
X121884727Y-81678814D01*
X122058538Y-81585910D01*
X122210883Y-81460883D01*
X122335910Y-81308538D01*
X122428814Y-81134727D01*
X122486024Y-80946132D01*
X122505341Y-80750000D01*
X122498261Y-80678111D01*
X122486025Y-80553873D01*
X122486024Y-80553870D01*
X122486024Y-80553868D01*
X122428814Y-80365273D01*
X122335910Y-80191462D01*
X122335906Y-80191457D01*
X122210887Y-80039121D01*
X122210878Y-80039112D01*
X122058542Y-79914093D01*
X122058540Y-79914092D01*
X122058538Y-79914090D01*
X121998055Y-79881761D01*
X121884732Y-79821188D01*
X121884730Y-79821187D01*
X121696129Y-79763975D01*
X121696126Y-79763974D01*
X121500003Y-79744659D01*
X121499997Y-79744659D01*
X121303873Y-79763974D01*
X121303870Y-79763975D01*
X121115269Y-79821187D01*
X121115267Y-79821188D01*
X120941467Y-79914087D01*
X120941457Y-79914093D01*
X120789121Y-80039112D01*
X120789112Y-80039121D01*
X120664093Y-80191457D01*
X120664087Y-80191467D01*
X120571188Y-80365267D01*
X120571187Y-80365269D01*
X120513975Y-80553870D01*
X120513974Y-80553873D01*
X120494659Y-80749996D01*
X120494659Y-80750003D01*
X120513974Y-80946126D01*
X120513975Y-80946129D01*
X120571187Y-81134730D01*
X120571188Y-81134732D01*
X120624483Y-81234438D01*
X120664090Y-81308538D01*
X120664092Y-81308540D01*
X120664093Y-81308542D01*
X120682975Y-81331549D01*
X120783327Y-81453828D01*
X120787028Y-81458337D01*
X120809328Y-81515313D01*
X120809500Y-81521142D01*
X120809500Y-82309608D01*
X120790593Y-82367799D01*
X120741093Y-82403763D01*
X120679907Y-82403763D01*
X120635383Y-82374094D01*
X120578240Y-82307531D01*
X120425372Y-82189203D01*
X120251818Y-82104071D01*
X120251820Y-82104071D01*
X120153871Y-82078710D01*
X120064674Y-82055615D01*
X120064672Y-82055614D01*
X120064669Y-82055614D01*
X119920560Y-82048306D01*
X119871610Y-82045824D01*
X119871608Y-82045824D01*
X119871605Y-82045824D01*
X119680525Y-82075096D01*
X119499250Y-82142233D01*
X119335191Y-82244492D01*
X119335185Y-82244497D01*
X119195082Y-82377675D01*
X119084651Y-82536334D01*
X119084645Y-82536345D01*
X119008413Y-82713986D01*
X119008413Y-82713988D01*
X118969500Y-82903344D01*
X118969500Y-82903347D01*
X118969500Y-83515583D01*
X118950593Y-83573774D01*
X118943072Y-83582920D01*
X118941029Y-83585121D01*
X118908556Y-83632748D01*
X118906416Y-83635764D01*
X118872207Y-83682116D01*
X118868742Y-83688674D01*
X118868353Y-83688468D01*
X118867350Y-83690455D01*
X118867746Y-83690646D01*
X118864526Y-83697332D01*
X118847536Y-83752410D01*
X118846380Y-83755923D01*
X118827355Y-83810295D01*
X118825976Y-83817587D01*
X118825544Y-83817505D01*
X118825171Y-83819700D01*
X118825605Y-83819766D01*
X118824500Y-83827099D01*
X118824500Y-83884715D01*
X118824431Y-83888416D01*
X118822276Y-83946010D01*
X118823107Y-83953385D01*
X118822668Y-83953434D01*
X118824500Y-83967344D01*
X118824500Y-84832745D01*
X118805593Y-84890936D01*
X118795509Y-84902742D01*
X118709775Y-84988477D01*
X118701470Y-84996782D01*
X118640283Y-85116867D01*
X118640281Y-85116874D01*
X118624500Y-85216512D01*
X118624500Y-85783488D01*
X118635909Y-85855525D01*
X118640281Y-85883125D01*
X118640283Y-85883132D01*
X118694128Y-85988807D01*
X118701472Y-86003220D01*
X118795505Y-86097253D01*
X118823281Y-86151768D01*
X118824500Y-86167255D01*
X118824500Y-86742560D01*
X118805593Y-86800751D01*
X118805155Y-86801348D01*
X118797207Y-86812116D01*
X118752355Y-86940296D01*
X118752353Y-86940305D01*
X118749500Y-86970725D01*
X118749500Y-88029274D01*
X118752353Y-88059694D01*
X118752355Y-88059703D01*
X118797207Y-88187883D01*
X118877845Y-88297144D01*
X118877847Y-88297146D01*
X118877850Y-88297150D01*
X118877853Y-88297152D01*
X118877854Y-88297153D01*
X118959288Y-88357254D01*
X118994881Y-88407021D01*
X118999500Y-88436909D01*
X118999500Y-89881636D01*
X118998878Y-89892719D01*
X118994730Y-89929533D01*
X118994730Y-89929538D01*
X119005444Y-89986164D01*
X119006064Y-89989812D01*
X119014652Y-90046787D01*
X119016840Y-90053881D01*
X119016417Y-90054011D01*
X119017109Y-90056113D01*
X119017526Y-90055968D01*
X119019975Y-90062968D01*
X119046906Y-90113924D01*
X119048574Y-90117228D01*
X119073574Y-90169141D01*
X119077753Y-90175270D01*
X119077389Y-90175517D01*
X119078677Y-90177331D01*
X119079030Y-90177071D01*
X119083434Y-90183038D01*
X119124200Y-90223805D01*
X119126768Y-90226471D01*
X119148072Y-90249431D01*
X119173792Y-90304947D01*
X119174500Y-90316768D01*
X119174500Y-91479274D01*
X119177353Y-91509694D01*
X119177355Y-91509703D01*
X119222207Y-91637883D01*
X119302845Y-91747144D01*
X119302847Y-91747146D01*
X119302850Y-91747150D01*
X119302853Y-91747152D01*
X119302855Y-91747154D01*
X119412114Y-91827791D01*
X119412116Y-91827791D01*
X119412118Y-91827793D01*
X119520700Y-91865787D01*
X119569378Y-91902850D01*
X119587000Y-91959230D01*
X119587000Y-92006636D01*
X119586378Y-92017719D01*
X119582230Y-92054533D01*
X119582230Y-92054538D01*
X119592944Y-92111164D01*
X119593564Y-92114812D01*
X119602152Y-92171787D01*
X119604340Y-92178881D01*
X119603917Y-92179011D01*
X119604609Y-92181113D01*
X119605026Y-92180968D01*
X119607475Y-92187968D01*
X119634406Y-92238924D01*
X119636074Y-92242228D01*
X119661074Y-92294141D01*
X119665253Y-92300270D01*
X119664889Y-92300517D01*
X119666177Y-92302331D01*
X119666530Y-92302071D01*
X119670934Y-92308038D01*
X119711699Y-92348804D01*
X119714268Y-92351471D01*
X119753444Y-92393694D01*
X119759243Y-92398318D01*
X119758967Y-92398663D01*
X119770100Y-92407204D01*
X120409629Y-93046732D01*
X120417025Y-93055009D01*
X120440121Y-93083970D01*
X120473844Y-93106962D01*
X120487745Y-93116440D01*
X120490757Y-93118577D01*
X120537118Y-93152793D01*
X120537121Y-93152794D01*
X120543677Y-93156259D01*
X120543469Y-93156651D01*
X120545450Y-93157651D01*
X120545643Y-93157253D01*
X120552327Y-93160472D01*
X120607407Y-93177461D01*
X120610909Y-93178613D01*
X120665301Y-93197646D01*
X120672593Y-93199026D01*
X120672510Y-93199460D01*
X120674693Y-93199830D01*
X120674759Y-93199394D01*
X120682098Y-93200500D01*
X120739716Y-93200500D01*
X120743417Y-93200569D01*
X120745519Y-93200647D01*
X120801010Y-93202724D01*
X120801016Y-93202722D01*
X120808385Y-93201893D01*
X120808434Y-93202331D01*
X120822344Y-93200500D01*
X121067068Y-93200500D01*
X121125259Y-93219407D01*
X121127315Y-93220943D01*
X121197159Y-93274536D01*
X121197160Y-93274536D01*
X121197161Y-93274537D01*
X121343233Y-93335042D01*
X121343238Y-93335044D01*
X121460809Y-93350522D01*
X121499999Y-93355682D01*
X121500000Y-93355682D01*
X121500001Y-93355682D01*
X121531352Y-93351554D01*
X121656762Y-93335044D01*
X121705433Y-93314883D01*
X121766426Y-93310083D01*
X121818595Y-93342052D01*
X121842011Y-93398579D01*
X121827728Y-93458074D01*
X121813320Y-93476352D01*
X120248982Y-95040690D01*
X120194465Y-95068467D01*
X120155287Y-95066810D01*
X120085056Y-95049500D01*
X119914944Y-95049500D01*
X119844710Y-95066810D01*
X119783685Y-95062376D01*
X119751017Y-95040690D01*
X119418274Y-94707948D01*
X119412439Y-94701580D01*
X119387456Y-94671806D01*
X119353795Y-94652372D01*
X119346512Y-94647732D01*
X119314685Y-94625446D01*
X119314679Y-94625443D01*
X119313224Y-94625054D01*
X119289348Y-94615164D01*
X119288045Y-94614411D01*
X119249779Y-94607664D01*
X119241350Y-94605795D01*
X119218586Y-94599696D01*
X119203807Y-94595736D01*
X119203806Y-94595736D01*
X119203805Y-94595736D01*
X119165095Y-94599123D01*
X119156466Y-94599500D01*
X117221213Y-94599500D01*
X117163022Y-94580593D01*
X117133004Y-94545445D01*
X117103051Y-94486660D01*
X117103050Y-94486658D01*
X117013342Y-94396950D01*
X116900304Y-94339354D01*
X116900305Y-94339354D01*
X116806522Y-94324500D01*
X116193479Y-94324500D01*
X116193476Y-94324501D01*
X116099700Y-94339352D01*
X116099695Y-94339354D01*
X115986659Y-94396949D01*
X115896949Y-94486659D01*
X115839354Y-94599695D01*
X115824500Y-94693477D01*
X115824500Y-95156520D01*
X115000500Y-95156520D01*
X115000500Y-83551595D01*
X116330000Y-83551595D01*
X116345190Y-83705831D01*
X116345191Y-83705836D01*
X116405232Y-83903762D01*
X116405234Y-83903767D01*
X116502724Y-84086160D01*
X116502731Y-84086170D01*
X116633940Y-84246050D01*
X116633949Y-84246059D01*
X116793829Y-84377268D01*
X116793839Y-84377275D01*
X116976232Y-84474765D01*
X116976237Y-84474767D01*
X117129999Y-84521411D01*
X117130000Y-84521411D01*
X117130000Y-83624189D01*
X117182547Y-83660016D01*
X117312173Y-83700000D01*
X117413724Y-83700000D01*
X117514138Y-83684865D01*
X117630000Y-83629068D01*
X117630000Y-84521411D01*
X117783762Y-84474767D01*
X117783767Y-84474765D01*
X117966160Y-84377275D01*
X117966170Y-84377268D01*
X118126050Y-84246059D01*
X118126059Y-84246050D01*
X118257268Y-84086170D01*
X118257275Y-84086160D01*
X118354765Y-83903767D01*
X118354767Y-83903762D01*
X118414808Y-83705836D01*
X118414809Y-83705831D01*
X118430000Y-83551595D01*
X118430000Y-83500001D01*
X118429999Y-83500000D01*
X117755278Y-83500000D01*
X117803625Y-83416260D01*
X117833810Y-83284008D01*
X117823673Y-83148735D01*
X117774113Y-83022459D01*
X117756203Y-83000000D01*
X118429999Y-83000000D01*
X118430000Y-82999999D01*
X118430000Y-82948404D01*
X118414809Y-82794168D01*
X118414808Y-82794163D01*
X118354767Y-82596237D01*
X118354765Y-82596232D01*
X118257275Y-82413839D01*
X118257268Y-82413829D01*
X118126059Y-82253949D01*
X118126050Y-82253940D01*
X117966170Y-82122731D01*
X117966160Y-82122724D01*
X117783771Y-82025236D01*
X117783758Y-82025231D01*
X117630000Y-81978588D01*
X117630000Y-82875810D01*
X117577453Y-82839984D01*
X117447827Y-82800000D01*
X117346276Y-82800000D01*
X117245862Y-82815135D01*
X117130000Y-82870931D01*
X117130000Y-81978588D01*
X116976241Y-82025231D01*
X116976228Y-82025236D01*
X116793839Y-82122724D01*
X116793829Y-82122731D01*
X116633949Y-82253940D01*
X116633940Y-82253949D01*
X116502731Y-82413829D01*
X116502724Y-82413839D01*
X116405234Y-82596232D01*
X116405232Y-82596237D01*
X116345191Y-82794163D01*
X116345190Y-82794168D01*
X116330000Y-82948404D01*
X116330000Y-82999999D01*
X116330001Y-83000000D01*
X117004722Y-83000000D01*
X116956375Y-83083740D01*
X116926190Y-83215992D01*
X116936327Y-83351265D01*
X116985887Y-83477541D01*
X117003797Y-83500000D01*
X116330001Y-83500000D01*
X116330000Y-83500001D01*
X116330000Y-83551595D01*
X115000500Y-83551595D01*
X115000500Y-83003889D01*
X115000805Y-82996124D01*
X115003155Y-82966260D01*
X115004977Y-82943110D01*
X115004990Y-82942954D01*
X115017159Y-82803859D01*
X115019511Y-82789423D01*
X115038677Y-82709590D01*
X115039272Y-82707244D01*
X115067441Y-82602117D01*
X115071589Y-82589898D01*
X115105217Y-82508713D01*
X115106911Y-82504864D01*
X115150452Y-82411489D01*
X115155741Y-82401645D01*
X115202790Y-82324867D01*
X115206028Y-82319929D01*
X115263976Y-82237170D01*
X115269746Y-82229717D01*
X115328734Y-82160652D01*
X115333961Y-82154997D01*
X115404997Y-82083961D01*
X115410652Y-82078734D01*
X115479717Y-82019746D01*
X115487170Y-82013976D01*
X115569929Y-81956028D01*
X115574867Y-81952790D01*
X115651645Y-81905741D01*
X115661489Y-81900452D01*
X115754864Y-81856911D01*
X115758713Y-81855217D01*
X115839898Y-81821589D01*
X115852117Y-81817441D01*
X115957244Y-81789272D01*
X115959590Y-81788677D01*
X116039423Y-81769511D01*
X116053859Y-81767159D01*
X116192954Y-81754990D01*
X116193110Y-81754977D01*
X116244492Y-81750933D01*
X116246125Y-81750805D01*
X116253890Y-81750500D01*
X116848420Y-81750500D01*
X117042821Y-81719710D01*
X117042822Y-81719709D01*
X117042826Y-81719709D01*
X117230025Y-81658884D01*
X117405405Y-81569524D01*
X117564646Y-81453828D01*
X117703828Y-81314646D01*
X117819524Y-81155405D01*
X117908884Y-80980025D01*
X117969709Y-80792826D01*
X117969710Y-80792821D01*
X118000500Y-80598420D01*
X118000500Y-80327985D01*
X118019407Y-80269794D01*
X118068907Y-80233830D01*
X118130093Y-80233830D01*
X118169504Y-80257981D01*
X118311188Y-80399665D01*
X118497518Y-80530134D01*
X118703676Y-80626266D01*
X118900000Y-80678872D01*
X118900000Y-79933686D01*
X118940156Y-79959493D01*
X119078111Y-80000000D01*
X119221889Y-80000000D01*
X119359844Y-79959493D01*
X119400000Y-79933686D01*
X119400000Y-80678871D01*
X119596323Y-80626266D01*
X119802481Y-80530134D01*
X119988811Y-80399665D01*
X120149665Y-80238811D01*
X120280134Y-80052481D01*
X120376266Y-79846323D01*
X120435142Y-79626597D01*
X120450000Y-79456771D01*
X120450000Y-79000001D01*
X120449999Y-79000000D01*
X119650000Y-79000000D01*
X119650000Y-78750000D01*
X121944435Y-78750000D01*
X121964632Y-78929257D01*
X121964633Y-78929261D01*
X122024211Y-79099522D01*
X122024211Y-79099523D01*
X122120181Y-79252258D01*
X122120184Y-79252262D01*
X122247738Y-79379816D01*
X122400478Y-79475789D01*
X122468657Y-79499646D01*
X122570738Y-79535366D01*
X122570742Y-79535367D01*
X122570745Y-79535368D01*
X122570746Y-79535368D01*
X122570750Y-79535369D01*
X122705029Y-79550499D01*
X122705045Y-79550499D01*
X122705046Y-79550500D01*
X122705047Y-79550500D01*
X122794953Y-79550500D01*
X122794954Y-79550500D01*
X122794955Y-79550499D01*
X122794970Y-79550499D01*
X122929249Y-79535369D01*
X122929251Y-79535368D01*
X122929255Y-79535368D01*
X123099522Y-79475789D01*
X123252262Y-79379816D01*
X123379816Y-79252262D01*
X123475789Y-79099522D01*
X123535368Y-78929255D01*
X123555565Y-78750000D01*
X126444435Y-78750000D01*
X126464632Y-78929257D01*
X126464633Y-78929261D01*
X126524211Y-79099522D01*
X126524211Y-79099523D01*
X126620181Y-79252258D01*
X126620184Y-79252262D01*
X126747738Y-79379816D01*
X126900478Y-79475789D01*
X126968657Y-79499646D01*
X127070738Y-79535366D01*
X127070742Y-79535367D01*
X127070745Y-79535368D01*
X127070746Y-79535368D01*
X127070750Y-79535369D01*
X127205029Y-79550499D01*
X127205045Y-79550499D01*
X127205046Y-79550500D01*
X127205047Y-79550500D01*
X127294953Y-79550500D01*
X127294954Y-79550500D01*
X127294955Y-79550499D01*
X127294970Y-79550499D01*
X127429249Y-79535369D01*
X127429251Y-79535368D01*
X127429255Y-79535368D01*
X127599522Y-79475789D01*
X127752262Y-79379816D01*
X127879816Y-79252262D01*
X127975789Y-79099522D01*
X128035368Y-78929255D01*
X128055565Y-78750000D01*
X128035368Y-78570745D01*
X127975789Y-78400478D01*
X127879816Y-78247738D01*
X127752262Y-78120184D01*
X127752259Y-78120182D01*
X127752258Y-78120181D01*
X127599523Y-78024211D01*
X127429261Y-77964633D01*
X127429249Y-77964630D01*
X127294970Y-77949500D01*
X127294954Y-77949500D01*
X127205046Y-77949500D01*
X127205029Y-77949500D01*
X127070750Y-77964630D01*
X127070738Y-77964633D01*
X126900477Y-78024211D01*
X126900476Y-78024211D01*
X126747741Y-78120181D01*
X126620181Y-78247741D01*
X126524211Y-78400476D01*
X126524211Y-78400477D01*
X126464633Y-78570738D01*
X126464632Y-78570742D01*
X126444435Y-78750000D01*
X123555565Y-78750000D01*
X123535368Y-78570745D01*
X123475789Y-78400478D01*
X123379816Y-78247738D01*
X123252262Y-78120184D01*
X123252259Y-78120182D01*
X123252258Y-78120181D01*
X123099523Y-78024211D01*
X122929261Y-77964633D01*
X122929249Y-77964630D01*
X122794970Y-77949500D01*
X122794954Y-77949500D01*
X122705046Y-77949500D01*
X122705029Y-77949500D01*
X122570750Y-77964630D01*
X122570738Y-77964633D01*
X122400477Y-78024211D01*
X122400476Y-78024211D01*
X122247741Y-78120181D01*
X122120181Y-78247741D01*
X122024211Y-78400476D01*
X122024211Y-78400477D01*
X121964633Y-78570738D01*
X121964632Y-78570742D01*
X121944435Y-78750000D01*
X119650000Y-78750000D01*
X119650000Y-78500000D01*
X120449999Y-78500000D01*
X120450000Y-78499999D01*
X120450000Y-78043228D01*
X120435142Y-77873402D01*
X120376266Y-77653676D01*
X120280134Y-77447518D01*
X120149665Y-77261188D01*
X119988811Y-77100334D01*
X119802481Y-76969865D01*
X119596323Y-76873732D01*
X119400000Y-76821127D01*
X119400000Y-77566313D01*
X119359844Y-77540507D01*
X119221889Y-77500000D01*
X119078111Y-77500000D01*
X118940156Y-77540507D01*
X118900000Y-77566313D01*
X118900000Y-76821127D01*
X118703676Y-76873732D01*
X118497518Y-76969865D01*
X118311187Y-77100335D01*
X118311183Y-77100338D01*
X118176845Y-77234676D01*
X118122329Y-77262453D01*
X118061897Y-77252881D01*
X118018632Y-77209617D01*
X118008219Y-77156047D01*
X118017159Y-77053859D01*
X118019511Y-77039423D01*
X118038677Y-76959590D01*
X118039272Y-76957244D01*
X118067441Y-76852117D01*
X118071589Y-76839898D01*
X118105217Y-76758713D01*
X118106911Y-76754864D01*
X118150452Y-76661489D01*
X118155741Y-76651645D01*
X118202790Y-76574867D01*
X118206028Y-76569929D01*
X118263976Y-76487170D01*
X118269746Y-76479717D01*
X118328734Y-76410652D01*
X118333961Y-76404997D01*
X118404997Y-76333961D01*
X118410652Y-76328734D01*
X118479717Y-76269746D01*
X118487170Y-76263976D01*
X118569929Y-76206028D01*
X118574867Y-76202790D01*
X118651645Y-76155741D01*
X118661489Y-76150452D01*
X118754864Y-76106911D01*
X118758713Y-76105217D01*
X118839898Y-76071589D01*
X118852117Y-76067441D01*
X118957244Y-76039272D01*
X118959590Y-76038677D01*
X119039423Y-76019511D01*
X119053859Y-76017159D01*
X119192954Y-76004990D01*
X119193110Y-76004977D01*
X119244492Y-76000933D01*
X119246125Y-76000805D01*
X119253890Y-76000500D01*
X130746110Y-76000500D01*
X130753875Y-76000805D01*
G37*
%TD.AperFunction*%
%TD*%
M02*
